<?xml version="1.0" encoding="UTF-8" standalone="no"?>
<svg
   xmlns="http://www.w3.org/2000/svg"
   width="43"
   height="43"
   viewBox="0 0 43 43"
   fill="none">
  <path
     id="path26"
     style="color:#000000;font-style:normal;font-variant:normal;font-weight:normal;font-stretch:normal;font-size:medium;line-height:normal;font-family:sans-serif;font-variant-ligatures:normal;font-variant-position:normal;font-variant-caps:normal;font-variant-numeric:normal;font-variant-alternates:normal;font-variant-east-asian:normal;font-feature-settings:normal;font-variation-settings:normal;text-indent:0;text-align:start;text-decoration:none;text-decoration-line:none;text-decoration-style:solid;text-decoration-color:#000000;letter-spacing:normal;word-spacing:normal;text-transform:none;writing-mode:lr-tb;direction:ltr;text-orientation:mixed;dominant-baseline:auto;baseline-shift:baseline;text-anchor:start;white-space:normal;shape-padding:0;shape-margin:0;inline-size:0;clip-rule:nonzero;display:inline;overflow:visible;visibility:visible;isolation:auto;mix-blend-mode:normal;color-interpolation:sRGB;color-interpolation-filters:linearRGB;solid-color:#000000;solid-opacity:1;vector-effect:none;fill:#0d6efd;fill-opacity:1;fill-rule:nonzero;stroke:none;stroke-width:0.397119;stroke-linecap:butt;stroke-linejoin:round;stroke-miterlimit:4;stroke-dasharray:none;stroke-dashoffset:0;stroke-opacity:1;color-rendering:auto;image-rendering:auto;shape-rendering:auto;text-rendering:auto;enable-background:accumulate;stop-color:#000000;stop-opacity:1"
     d="m 23.580867,1.402 c -6.183504,0 -11.215503,5.033919 -11.215503,11.217443 0,6.183502 5.032,11.217442 11.215503,11.217442 2.585958,0 4.958114,-0.895138 6.856504,-2.373406 l 1.968143,1.970083 c 0.213038,0.212799 0.494074,0.319944 0.773683,0.319944 0.279339,0 0.562419,-0.106741 0.775622,-0.319944 l 3.170359,-3.172297 c 0.313189,-0.312949 0.407886,-0.783391 0.238503,-1.192521 -0.169384,-0.409132 -0.569233,-0.67673 -1.012187,-0.67673 h -0.319945 v -7.804703 c 0,-0.6021945 -0.491433,-1.0955665 -1.093627,-1.0955665 h -0.59723 C 32.981834,4.8265561 28.677725,1.402 23.580867,1.402 Z m 0,1.4930736 c 4.268677,0 7.89384,2.7649608 9.198885,6.5966709 h -1.157617 c -0.602273,0 -1.095568,0.493372 -1.095568,1.0955675 v 7.804702 H 30.00884 c -0.442804,0 -0.842804,0.267477 -1.012188,0.67673 -0.169251,0.408983 -0.07465,0.879369 0.238504,1.192521 l 0.14543,0.14543 c -1.620742,1.212055 -3.623969,1.937116 -5.799719,1.937117 -5.3638,0 -9.724369,-4.36057 -9.724369,-9.724369 0,-5.3638317 4.360569,-9.7243697 9.724369,-9.7243694 z m 8.436836,8.0878054 h 2.522712 v 7.806641 c 0,0.53504 0.413837,0.930377 0.922991,1.023822 l -2.282269,2.28227 -2.226038,-2.224098 c 0.585624,-0.01936 1.062604,-0.491965 1.062604,-1.081994 z" />
  <path
     style="color:#000000;font-style:normal;font-variant:normal;font-weight:normal;font-stretch:normal;font-size:medium;line-height:normal;font-family:sans-serif;font-variant-ligatures:normal;font-variant-position:normal;font-variant-caps:normal;font-variant-numeric:normal;font-variant-alternates:normal;font-variant-east-asian:normal;font-feature-settings:normal;font-variation-settings:normal;text-indent:0;text-align:start;text-decoration:none;text-decoration-line:none;text-decoration-style:solid;text-decoration-color:#000000;letter-spacing:normal;word-spacing:normal;text-transform:none;writing-mode:lr-tb;direction:ltr;text-orientation:mixed;dominant-baseline:auto;baseline-shift:baseline;text-anchor:start;white-space:normal;shape-padding:0;shape-margin:0;inline-size:0;clip-rule:nonzero;display:inline;overflow:visible;visibility:visible;isolation:auto;mix-blend-mode:normal;color-interpolation:sRGB;color-interpolation-filters:linearRGB;solid-color:#000000;solid-opacity:1;vector-effect:none;fill:#0d6efd;fill-opacity:1;fill-rule:nonzero;stroke:none;stroke-width:0.992797;stroke-linecap:butt;stroke-linejoin:miter;stroke-miterlimit:4;stroke-dasharray:none;stroke-dashoffset:0;stroke-opacity:1;color-rendering:auto;image-rendering:auto;shape-rendering:auto;text-rendering:auto;enable-background:accumulate;stop-color:#000000;stop-opacity:1"
     d="m 22.885745,18.237615 c -1.531985,-0.231222 -2.641734,-1.179839 -2.767621,-2.730091 -0.01311,-0.161429 0.118044,-0.299131 0.279969,-0.299131 h 1.212205 c 0.138396,0 0.253164,0.10196 0.276395,0.23837 0.09183,0.539288 0.361577,0.961028 0.830872,1.183614 0.187241,0.08876 0.404366,-0.04468 0.404366,-0.252072 v -2.927461 c 0,-0.125489 -0.08359,-0.235392 -0.204417,-0.269445 -1.377208,-0.389474 -2.811203,-0.898183 -2.811203,-3.049673 0,-1.7138854 1.127717,-2.9161228 2.78142,-3.1731877 0.135021,-0.020938 0.234201,-0.1385647 0.234201,-0.2753821 V 5.8955704 c 0,-0.1546182 0.125291,-0.279929 0.279869,-0.279929 h 0.373689 c 0.154579,0 0.27987,0.1253108 0.27987,0.279929 v 0.7706587 c 0,0.1366485 0.09878,0.2551388 0.234101,0.2755607 1.426451,0.2153476 2.412596,1.1038016 2.632997,2.6314877 0.02432,0.167882 -0.108513,0.318291 -0.278182,0.318291 h -1.200589 c -0.134226,0 -0.245419,-0.0959 -0.274508,-0.226854 -0.08975,-0.402579 -0.31988,-0.7676607 -0.675203,-1.0006404 -0.188135,-0.1233748 -0.438419,0.00663 -0.438419,0.2317586 v 2.8152353 c 0,0.126581 0.08498,0.23708 0.207197,0.270338 1.375322,0.374186 2.794326,0.869294 2.794326,3.019096 0,1.489692 -0.977508,2.935403 -2.767521,3.220931 -0.134821,0.02144 -0.234002,0.138496 -0.234002,0.275203 v 0.788082 c 0,0.154578 -0.125291,0.279969 -0.279869,0.279969 h -0.373689 c -0.154579,0 -0.279869,-0.125391 -0.279869,-0.279969 v -0.771006 c -3.98e-4,-0.1379 -0.100372,-0.255447 -0.236385,-0.276097 z m 0.235987,-7.002792 V 8.7727953 c 0,-0.1893462 -0.186248,-0.329827 -0.364952,-0.2671815 -0.591905,0.207852 -0.984954,0.7115477 -0.984954,1.5300092 0,0.757505 0.382228,1.17428 0.943852,1.44988 0.187044,0.09173 0.406054,-0.04249 0.406054,-0.25068 z m 0.933627,2.692664 v 2.458761 c 0,0.203226 0.20948,0.336955 0.395829,0.255745 0.613747,-0.266963 0.954276,-0.85053 0.954276,-1.545785 0,-0.745392 -0.38312,-1.149064 -0.945937,-1.420395 -0.186646,-0.08985 -0.404167,0.04428 -0.404168,0.251674 z"
     id="path34" />
  <path
     id="path920"
     style="color:#000000;font-style:normal;font-variant:normal;font-weight:normal;font-stretch:normal;font-size:medium;line-height:normal;font-family:sans-serif;font-variant-ligatures:normal;font-variant-position:normal;font-variant-caps:normal;font-variant-numeric:normal;font-variant-alternates:normal;font-variant-east-asian:normal;font-feature-settings:normal;font-variation-settings:normal;text-indent:0;text-align:start;text-decoration:none;text-decoration-line:none;text-decoration-style:solid;text-decoration-color:#000000;letter-spacing:normal;word-spacing:normal;text-transform:none;writing-mode:lr-tb;direction:ltr;text-orientation:mixed;dominant-baseline:auto;baseline-shift:baseline;text-anchor:start;white-space:normal;shape-padding:0;shape-margin:0;inline-size:0;clip-rule:nonzero;display:inline;overflow:visible;visibility:visible;isolation:auto;mix-blend-mode:normal;color-interpolation:sRGB;color-interpolation-filters:linearRGB;solid-color:#000000;solid-opacity:1;vector-effect:none;fill:#0d6efd;fill-opacity:1;fill-rule:nonzero;stroke:none;stroke-width:0.415843;stroke-linecap:butt;stroke-linejoin:miter;stroke-miterlimit:4;stroke-dasharray:none;stroke-dashoffset:0;stroke-opacity:1;color-rendering:auto;image-rendering:auto;shape-rendering:auto;text-rendering:auto;enable-background:accumulate;stop-color:#000000;stop-opacity:1"
     d="m 19.882812,25.980469 c -0.695427,0 -1.393845,0.153773 -2.02539,0.445312 l -5.541016,2.558594 c -0.762198,0.35164 -1.613247,0.537109 -2.4531248,0.537109 h -0.1875 c -0.4041987,0 -0.7382812,0.332179 -0.7382812,0.736328 v 7.820313 c 0,0.404175 0.3341021,0.736328 0.7382812,0.736328 h 1.6347658 c 0.01915,0 0.03013,-0.0012 0.04101,-0.002 h 0.01172 l 18.642578,-1.634766 0.576172,-0.04883 h 0.0039 l 0.0098,-0.002 c 0.544714,-0.0559 1.06572,-0.221734 1.541016,-0.494141 l 9.521484,-5.451171 c 0.387795,-0.222153 0.669752,-0.588208 0.785156,-1.019532 0.115027,-0.429355 0.05375,-0.885181 -0.169921,-1.269531 -1.029362,-1.768071 -3.319453,-2.37683 -5.09961,-1.357422 l -6.826172,3.908203 c -0.329501,0.188671 -0.717883,0.256209 -1.091797,0.189453 l -2.277343,-0.40625 c 1.704478,-0.334022 3.023437,-1.772677 3.023437,-3.572265 0,-0.919079 -0.752966,-1.673828 -1.671875,-1.673828 z m 0.002,1.476562 h 0.03516 8.412109 c 0.114555,0 0.197266,0.0826 0.197266,0.197266 0,1.237235 -1.000955,2.234375 -2.238281,2.234375 h -7.306641 c -0.389308,0 -0.714419,0.308953 -0.736328,0.697266 -0.02231,0.388436 0.266936,0.729296 0.652344,0.773437 L 20.115234,31.5 l 8.88086,1.583984 c 0.715562,0.127604 1.453817,-5.56e-4 2.083984,-0.361328 L 37.90625,28.814453 C 38.990481,28.193782 40.375739,28.56242 41,29.634766 c 0.02898,0.04977 0.03397,0.09251 0.01953,0.146484 -0.0146,0.05446 -0.04046,0.08865 -0.09375,0.119141 l -0.105469,0.05859 v 0.002 l -9.416015,5.392578 c -0.297147,0.170148 -0.619402,0.272279 -0.953125,0.30664 l -0.525391,0.04297 -18.646484,1.636719 H 10.414062 V 30.90625 c 0.862639,-0.06256 1.729366,-0.218438 2.521485,-0.583984 l 5.541015,-2.556641 c 0.435912,-0.201293 0.927939,-0.308595 1.408204,-0.308594 z" />
  <path
     id="path914"
     style="color:#000000;font-style:normal;font-variant:normal;font-weight:normal;font-stretch:normal;font-size:medium;line-height:normal;font-family:sans-serif;font-variant-ligatures:normal;font-variant-position:normal;font-variant-caps:normal;font-variant-numeric:normal;font-variant-alternates:normal;font-variant-east-asian:normal;font-feature-settings:normal;font-variation-settings:normal;text-indent:0;text-align:start;text-decoration:none;text-decoration-line:none;text-decoration-style:solid;text-decoration-color:#000000;letter-spacing:normal;word-spacing:normal;text-transform:none;writing-mode:lr-tb;direction:ltr;text-orientation:mixed;dominant-baseline:auto;baseline-shift:baseline;text-anchor:start;white-space:normal;shape-padding:0;shape-margin:0;inline-size:0;clip-rule:nonzero;display:inline;overflow:visible;visibility:visible;isolation:auto;mix-blend-mode:normal;color-interpolation:sRGB;color-interpolation-filters:linearRGB;solid-color:#000000;solid-opacity:1;vector-effect:none;fill:#0d6efd;fill-opacity:1;fill-rule:nonzero;stroke:none;stroke-width:0.415843;stroke-linecap:butt;stroke-linejoin:miter;stroke-miterlimit:4;stroke-dasharray:none;stroke-dashoffset:0;stroke-opacity:1;color-rendering:auto;image-rendering:auto;shape-rendering:auto;text-rendering:auto;enable-background:accumulate;stop-color:#000000;stop-opacity:1"
     d="M 1.2363281,26.328125 C 0.83216139,26.328125 0.5,26.66027 0.5,27.064453 v 13.501953 c 0,0.404184 0.33126632,0.738282 0.7363281,0.738282 h 5.5683594 c 0.684349,0 1.2460938,-0.5619 1.2460937,-1.246094 V 27.572266 c 0,-0.684288 -0.562267,-1.244141 -1.2460937,-1.244141 z m 0.7382813,1.474609 H 6.5761719 V 39.830078 H 1.9746094 Z" />
  <path
     id="path908"
     style="color:#000000;font-style:normal;font-variant:normal;font-weight:normal;font-stretch:normal;font-size:medium;line-height:normal;font-family:sans-serif;font-variant-ligatures:normal;font-variant-position:normal;font-variant-caps:normal;font-variant-numeric:normal;font-variant-alternates:normal;font-variant-east-asian:normal;font-feature-settings:normal;font-variation-settings:normal;text-indent:0;text-align:start;text-decoration:none;text-decoration-line:none;text-decoration-style:solid;text-decoration-color:#000000;letter-spacing:normal;word-spacing:normal;text-transform:none;writing-mode:lr-tb;direction:ltr;text-orientation:mixed;dominant-baseline:auto;baseline-shift:baseline;text-anchor:start;white-space:normal;shape-padding:0;shape-margin:0;inline-size:0;clip-rule:nonzero;display:inline;overflow:visible;visibility:visible;isolation:auto;mix-blend-mode:normal;color-interpolation:sRGB;color-interpolation-filters:linearRGB;solid-color:#000000;solid-opacity:1;vector-effect:none;fill:#0d6efd;fill-opacity:1;fill-rule:nonzero;stroke:none;stroke-width:0.415843;stroke-linecap:butt;stroke-linejoin:miter;stroke-miterlimit:4;stroke-dasharray:none;stroke-dashoffset:0;stroke-opacity:1;color-rendering:auto;image-rendering:auto;shape-rendering:auto;text-rendering:auto;enable-background:accumulate;stop-color:#000000;stop-opacity:1"
     d="m 7.3125,27.677734 c -0.4041668,0 -0.7363281,0.332144 -0.7363281,0.736328 v 11.140626 c 0,0.404183 0.3312662,0.738281 0.7363281,0.738281 h 1.9023438 c 0.6585301,0 1.1992182,-0.542671 1.1992182,-1.201172 V 28.876953 c 0,-0.658548 -0.5411164,-1.199219 -1.1992182,-1.199219 z m 0.7382812,1.476563 H 8.9375 v 9.662109 H 8.0507812 Z" />
</svg>
