<?xml version="1.0" encoding="UTF-8" standalone="no"?>
<svg xmlns="http://www.w3.org/2000/svg" width="43" height="43" viewBox="0 0 43 43" fill="none">
  <path
     id="path851"
     style="color:#000000;font-style:normal;font-variant:normal;font-weight:normal;font-stretch:normal;font-size:medium;line-height:normal;font-family:sans-serif;font-variant-ligatures:normal;font-variant-position:normal;font-variant-caps:normal;font-variant-numeric:normal;font-variant-alternates:normal;font-variant-east-asian:normal;font-feature-settings:normal;font-variation-settings:normal;text-indent:0;text-align:start;text-decoration:none;text-decoration-line:none;text-decoration-style:solid;text-decoration-color:#000000;letter-spacing:normal;word-spacing:normal;text-transform:none;writing-mode:lr-tb;direction:ltr;text-orientation:mixed;dominant-baseline:auto;baseline-shift:baseline;text-anchor:start;white-space:normal;shape-padding:0;shape-margin:0;inline-size:0;clip-rule:nonzero;display:inline;overflow:visible;visibility:visible;isolation:auto;mix-blend-mode:normal;color-interpolation:sRGB;color-interpolation-filters:linearRGB;solid-color:#000000;solid-opacity:1;vector-effect:none;fill:#0d6efd;fill-opacity:1;fill-rule:nonzero;stroke:none;stroke-width:0.4;stroke-linecap:butt;stroke-linejoin:miter;stroke-miterlimit:4;stroke-dasharray:none;stroke-dashoffset:0;stroke-opacity:1;color-rendering:auto;image-rendering:auto;shape-rendering:auto;text-rendering:auto;enable-background:accumulate;stop-color:#000000;stop-opacity:1"
     d="m 8.0692942,16.158033 c -0.3840054,-0.03792 -0.7341973,0.19942 -0.8710937,0.548828 L 3.1552317,27.038892 c -0.1409468,0.359664 -0.024251,0.771778 0.2832031,1.00586 0.1545051,0.117959 0.3388434,0.177734 0.5234375,0.177734 0.18234,0 0.3673467,-0.05784 0.5214844,-0.173828 l 3.2832031,-2.46289 1.8671875,0.373046 c 0.4126447,0.0821 0.8282097,-0.146366 0.9785157,-0.541015 1.044959,-2.737128 2.303456,-5.281479 3.736328,-7.560547 0.161917,-0.258132 0.17592,-0.582141 0.03711,-0.853516 -0.138194,-0.271331 -0.40964,-0.450133 -0.712891,-0.470703 h -0.002 z m 0.5117187,1.771485 3.5839851,0.238281 c -1.076138,1.85272 -2.050217,3.840216 -2.8925788,5.951172 l -1.546875,-0.308594 c -0.241148,-0.04763 -0.4902749,0.0093 -0.6875,0.15625 h -0.00195 l -1.15625,0.867187 z" />
  <path
     id="path857"
     style="color:#000000;font-style:normal;font-variant:normal;font-weight:normal;font-stretch:normal;font-size:medium;line-height:normal;font-family:sans-serif;font-variant-ligatures:normal;font-variant-position:normal;font-variant-caps:normal;font-variant-numeric:normal;font-variant-alternates:normal;font-variant-east-asian:normal;font-feature-settings:normal;font-variation-settings:normal;text-indent:0;text-align:start;text-decoration:none;text-decoration-line:none;text-decoration-style:solid;text-decoration-color:#000000;letter-spacing:normal;word-spacing:normal;text-transform:none;writing-mode:lr-tb;direction:ltr;text-orientation:mixed;dominant-baseline:auto;baseline-shift:baseline;text-anchor:start;white-space:normal;shape-padding:0;shape-margin:0;inline-size:0;clip-rule:nonzero;display:inline;overflow:visible;visibility:visible;isolation:auto;mix-blend-mode:normal;color-interpolation:sRGB;color-interpolation-filters:linearRGB;solid-color:#000000;solid-opacity:1;vector-effect:none;fill:#0d6efd;fill-opacity:1;fill-rule:nonzero;stroke:none;stroke-width:0.4;stroke-linecap:butt;stroke-linejoin:miter;stroke-miterlimit:4;stroke-dasharray:none;stroke-dashoffset:0;stroke-opacity:1;color-rendering:auto;image-rendering:auto;shape-rendering:auto;text-rendering:auto;enable-background:accumulate;stop-color:#000000;stop-opacity:1"
     d="m 25.563435,28.517408 c -0.147685,0.0067 -0.29465,0.05131 -0.423828,0.132813 -2.279327,1.432618 -4.822141,2.691589 -7.558594,3.736328 -0.394292,0.149545 -0.624074,0.564779 -0.541015,0.978515 l 0.373046,1.865235 -2.46289,3.285156 c -0.231443,0.309195 -0.230326,0.737144 0.0039,1.044922 0.166893,0.219541 0.424015,0.341797 0.689453,0.341797 0.106393,0 0.212035,-0.01967 0.3125,-0.05664 l 0.002,-0.002 10.333985,-4.042969 c 0.351285,-0.137346 0.573863,-0.489195 0.548828,-0.865234 l -0.375,-5.609375 c -0.02074,-0.304063 -0.199031,-0.576217 -0.470703,-0.714844 -0.135552,-0.06924 -0.283956,-0.100449 -0.431641,-0.09375 z m -0.734375,2.316406 0.240234,3.582032 -6.90625,2.703125 0.869141,-1.158203 c 0.147539,-0.19685 0.204905,-0.447479 0.15625,-0.689454 l -0.308594,-1.544922 c 2.110865,-0.842151 4.097133,-1.816728 5.949219,-2.892578 z" />
  <path
     id="path863"
     style="color:#000000;font-style:normal;font-variant:normal;font-weight:normal;font-stretch:normal;font-size:medium;line-height:normal;font-family:sans-serif;font-variant-ligatures:normal;font-variant-position:normal;font-variant-caps:normal;font-variant-numeric:normal;font-variant-alternates:normal;font-variant-east-asian:normal;font-feature-settings:normal;font-variation-settings:normal;text-indent:0;text-align:start;text-decoration:none;text-decoration-line:none;text-decoration-style:solid;text-decoration-color:#000000;letter-spacing:normal;word-spacing:normal;text-transform:none;writing-mode:lr-tb;direction:ltr;text-orientation:mixed;dominant-baseline:auto;baseline-shift:baseline;text-anchor:start;white-space:normal;shape-padding:0;shape-margin:0;inline-size:0;clip-rule:nonzero;display:inline;overflow:visible;visibility:visible;isolation:auto;mix-blend-mode:normal;color-interpolation:sRGB;color-interpolation-filters:linearRGB;solid-color:#000000;solid-opacity:1;vector-effect:none;fill:#0d6efd;fill-opacity:1;fill-rule:nonzero;stroke:none;stroke-width:0.4;stroke-linecap:butt;stroke-linejoin:miter;stroke-miterlimit:4;stroke-dasharray:none;stroke-dashoffset:0;stroke-opacity:1;color-rendering:auto;image-rendering:auto;shape-rendering:auto;text-rendering:auto;enable-background:accumulate;stop-color:#000000;stop-opacity:1"
     d="m 39.813435,1.3103773 c -0.644072,0.00543 -1.55935,0.041886 -2.685547,0.1640625 C 34.875495,1.7187937 31.795434,2.3062595 28.42281,3.6775648 21.677563,6.4201754 13.762897,12.30568 8.9931223,24.798658 c -0.121871,0.319007 -0.043997,0.680625 0.1972656,0.921875 l 3.1699221,3.169922 c 0.193083,0.193082 0.464189,0.281952 0.732422,0.246094 h 0.002 c 0.269146,-0.03893 0.505229,-0.201395 0.636719,-0.439453 l 3.11914,-5.664063 h 3.113282 v 2.65625 l -5.707032,3.603516 c -0.222229,0.140889 -0.368978,0.37535 -0.398437,0.636719 -0.02954,0.26195 0.06208,0.522883 0.248047,0.708984 l 3.169922,3.169922 c 0.165071,0.165071 0.387174,0.253906 0.613281,0.253906 0.103333,0 0.209072,-0.01926 0.310547,-0.05859 12.491588,-4.77021 18.378485,-12.684917 21.121047,-19.429691 1.371379,-3.372629 1.960821,-6.4507965 2.205078,-8.7031248 0.122128,-1.1261642 0.15712,-2.0474182 0.162109,-2.6933594 0.005,-0.6459412 -0.01911,-1.0013724 -0.02344,-1.0527344 -0.03548,-0.4203005 -0.372513,-0.7555999 -0.792969,-0.7910156 -0.04166,-0.00326 -0.414522,-0.028865 -1.058594,-0.023437 z m 0.128906,1.7519531 c 0.01427,1.6403434 -0.154737,5.8697495 -2.160156,10.8320306 -2.314915,5.727514 -7.608617,13.502424 -19.689453,18.279297 l -1.994141,-1.99414 5.195313,-3.279297 c 0.25075,-0.159038 0.404297,-0.435336 0.404297,-0.732422 v -4 c 0,-0.476189 -0.390999,-0.867188 -0.867188,-0.867188 h -4.492187 c -0.315968,0 -0.607513,0.173373 -0.759766,0.449219 l -2.808594,5.101562 -1.947265,-1.947265 C 14.97857,14.392026 21.432865,8.9171724 27.289998,6.0760023 33.042198,3.2857327 38.121639,3.0497161 39.942341,3.0623304 Z" />
  <path
     id="path869"
     style="color:#000000;font-style:normal;font-variant:normal;font-weight:normal;font-stretch:normal;font-size:medium;line-height:normal;font-family:sans-serif;font-variant-ligatures:normal;font-variant-position:normal;font-variant-caps:normal;font-variant-numeric:normal;font-variant-alternates:normal;font-variant-east-asian:normal;font-feature-settings:normal;font-variation-settings:normal;text-indent:0;text-align:start;text-decoration:none;text-decoration-line:none;text-decoration-style:solid;text-decoration-color:#000000;letter-spacing:normal;word-spacing:normal;text-transform:none;writing-mode:lr-tb;direction:ltr;text-orientation:mixed;dominant-baseline:auto;baseline-shift:baseline;text-anchor:start;white-space:normal;shape-padding:0;shape-margin:0;inline-size:0;clip-rule:nonzero;display:inline;overflow:visible;visibility:visible;isolation:auto;mix-blend-mode:normal;color-interpolation:sRGB;color-interpolation-filters:linearRGB;solid-color:#000000;solid-opacity:1;vector-effect:none;fill:#0d6efd;fill-opacity:1;fill-rule:nonzero;stroke:none;stroke-width:0.4;stroke-linecap:butt;stroke-linejoin:miter;stroke-miterlimit:4;stroke-dasharray:none;stroke-dashoffset:0;stroke-opacity:1;color-rendering:auto;image-rendering:auto;shape-rendering:auto;text-rendering:auto;enable-background:accumulate;stop-color:#000000;stop-opacity:1"
     d="m 16.338826,21.300611 c -0.314342,0 -0.60471,0.171387 -0.757813,0.445313 L 9.9442942,31.87483 c -0.1902956,0.342594 -0.1259518,0.774983 0.1562498,1.046875 0.165316,0.159162 0.382699,0.242188 0.601563,0.242187 0.153169,1e-6 0.308645,-0.04256 0.447266,-0.126953 l 10.130859,-6.128906 c 0.258866,-0.156645 0.417969,-0.439163 0.417969,-0.742187 v -3.998047 c 1.29e-4,-0.476254 -0.390999,-0.867188 -0.867188,-0.867188 z m 0.509765,1.732422 h 3.115235 v 2.646485 l -6.916016,4.185546 z" />
  <path
     id="path875"
     style="color:#000000;font-style:normal;font-variant:normal;font-weight:normal;font-stretch:normal;font-size:medium;line-height:normal;font-family:sans-serif;font-variant-ligatures:normal;font-variant-position:normal;font-variant-caps:normal;font-variant-numeric:normal;font-variant-alternates:normal;font-variant-east-asian:normal;font-feature-settings:normal;font-variation-settings:normal;text-indent:0;text-align:start;text-decoration:none;text-decoration-line:none;text-decoration-style:solid;text-decoration-color:#000000;letter-spacing:normal;word-spacing:normal;text-transform:none;writing-mode:lr-tb;direction:ltr;text-orientation:mixed;dominant-baseline:auto;baseline-shift:baseline;text-anchor:start;white-space:normal;shape-padding:0;shape-margin:0;inline-size:0;clip-rule:nonzero;display:inline;overflow:visible;visibility:visible;isolation:auto;mix-blend-mode:normal;color-interpolation:sRGB;color-interpolation-filters:linearRGB;solid-color:#000000;solid-opacity:1;vector-effect:none;fill:#0d6efd;fill-opacity:1;fill-rule:nonzero;stroke:none;stroke-width:0.4;stroke-linecap:butt;stroke-linejoin:miter;stroke-miterlimit:4;stroke-dasharray:none;stroke-dashoffset:0;stroke-opacity:1;color-rendering:auto;image-rendering:auto;shape-rendering:auto;text-rendering:auto;enable-background:accumulate;stop-color:#000000;stop-opacity:1"
     d="m 9.4345286,29.054518 c -0.3290375,0.0098 -0.6597796,0.05547 -0.9882813,0.138671 -1.3927784,0.353927 -2.5361321,1.304786 -3.1289062,2.609375 l -3.9414063,8.671875 h 0.00195 c -0.1496116,0.328512 -0.079761,0.716124 0.1757813,0.970703 0.1654741,0.165597 0.3868189,0.253907 0.6113281,0.253907 0.1219233,0 0.2451954,-0.02661 0.359375,-0.07813 l 8.6699218,-3.941406 c 1.30387,-0.592023 2.257502,-1.734177 2.611329,-3.126954 0.333598,-1.312766 0.06852,-2.675554 -0.728516,-3.730468 -0.150455,-0.199637 -0.392432,-0.250717 -0.626953,-0.273438 -0.0227,-0.234983 -0.07399,-0.478119 -0.273438,-0.628906 -0.527107,-0.398477 -1.131099,-0.663043 -1.767578,-0.78711 -0.318239,-0.06203 -0.6455721,-0.08797 -0.9746095,-0.07812 z m 0.1289062,1.730468 c 0.3096986,0 0.6020752,0.09015 0.8867192,0.19336 l -0.5039067,0.892578 c -0.1911892,0.338156 -0.1325709,0.764757 0.1425777,1.039062 0.274902,0.275745 0.70156,0.333787 1.039063,0.142578 L 11.99117,32.56233 c 0.175864,0.49219 0.272057,1.023018 0.134765,1.564453 -0.224087,0.883111 -0.824387,1.599539 -1.648438,1.974609 l -6.5664059,2.986329 2.984375,-6.56836 c 0.374423,-0.823789 1.0935615,-1.422498 1.9765625,-1.646484 0.2315293,-0.0586 0.4627826,-0.08789 0.6914062,-0.08789 z" />
  <path
     id="path881"
     style="color:#000000;font-style:normal;font-variant:normal;font-weight:normal;font-stretch:normal;font-size:medium;line-height:normal;font-family:sans-serif;font-variant-ligatures:normal;font-variant-position:normal;font-variant-caps:normal;font-variant-numeric:normal;font-variant-alternates:normal;font-variant-east-asian:normal;font-feature-settings:normal;font-variation-settings:normal;text-indent:0;text-align:start;text-decoration:none;text-decoration-line:none;text-decoration-style:solid;text-decoration-color:#000000;letter-spacing:normal;word-spacing:normal;text-transform:none;writing-mode:lr-tb;direction:ltr;text-orientation:mixed;dominant-baseline:auto;baseline-shift:baseline;text-anchor:start;white-space:normal;shape-padding:0;shape-margin:0;inline-size:0;clip-rule:nonzero;display:inline;overflow:visible;visibility:visible;isolation:auto;mix-blend-mode:normal;color-interpolation:sRGB;color-interpolation-filters:linearRGB;solid-color:#000000;solid-opacity:1;vector-effect:none;fill:#0d6efd;fill-opacity:1;fill-rule:nonzero;stroke:none;stroke-width:0.4;stroke-linecap:butt;stroke-linejoin:miter;stroke-miterlimit:4;stroke-dasharray:none;stroke-dashoffset:0;stroke-opacity:1;color-rendering:auto;image-rendering:auto;shape-rendering:auto;text-rendering:auto;enable-background:accumulate;stop-color:#000000;stop-opacity:1"
     d="m 39.627888,1.3006117 c -2.207437,0.016537 -7.077776,0.383579 -12.5625,2.9101562 -0.257874,0.1180229 -0.440033,0.3562856 -0.490234,0.6347656 -0.05019,0.2791354 0.04012,0.5655335 0.240234,0.765625 L 37.387654,16.183424 c 0.163675,0.163675 0.385271,0.253906 0.613281,0.253906 0.05083,0 0.100623,-0.0053 0.150391,-0.01367 h 0.002 c 0.278425,-0.05021 0.51622,-0.233147 0.634765,-0.490234 C 42.15744,8.6203937 41.688216,2.4075399 41.665045,2.1267855 41.629685,1.7063567 41.292455,1.369224 40.872076,1.3338168 c -0.06808,-0.00542 -0.508328,-0.038716 -1.244141,-0.033203 z m 0.316406,1.7558593 c 0.01585,1.6475343 -0.179652,5.94697 -2.24414,10.988281 L 28.956013,5.2986585 C 33.987146,3.2397412 38.298892,3.0406294 39.944294,3.056471 Z" />
  <path
     id="path887"
     style="color:#000000;font-style:normal;font-variant:normal;font-weight:normal;font-stretch:normal;font-size:medium;line-height:normal;font-family:sans-serif;font-variant-ligatures:normal;font-variant-position:normal;font-variant-caps:normal;font-variant-numeric:normal;font-variant-alternates:normal;font-variant-east-asian:normal;font-feature-settings:normal;font-variation-settings:normal;text-indent:0;text-align:start;text-decoration:none;text-decoration-line:none;text-decoration-style:solid;text-decoration-color:#000000;letter-spacing:normal;word-spacing:normal;text-transform:none;writing-mode:lr-tb;direction:ltr;text-orientation:mixed;dominant-baseline:auto;baseline-shift:baseline;text-anchor:start;white-space:normal;shape-padding:0;shape-margin:0;inline-size:0;clip-rule:nonzero;display:inline;overflow:visible;visibility:visible;isolation:auto;mix-blend-mode:normal;color-interpolation:sRGB;color-interpolation-filters:linearRGB;solid-color:#000000;solid-opacity:1;vector-effect:none;fill:#0d6efd;fill-opacity:1;fill-rule:nonzero;stroke:none;stroke-width:0.4;stroke-linecap:butt;stroke-linejoin:miter;stroke-miterlimit:4;stroke-dasharray:none;stroke-dashoffset:0;stroke-opacity:1;color-rendering:auto;image-rendering:auto;shape-rendering:auto;text-rendering:auto;enable-background:accumulate;stop-color:#000000;stop-opacity:1"
     d="m 26.873982,10.179518 c -1.523751,0 -3.047738,0.579029 -4.207031,1.738281 -2.318484,2.318587 -2.318489,6.095573 0,8.414062 1.158993,1.159717 2.684403,1.738281 4.207031,1.738281 1.523262,0 3.047518,-0.579285 4.207031,-1.738281 2.318593,-2.318489 2.318593,-6.095573 0,-8.414062 -1.159244,-1.159255 -2.68328,-1.738281 -4.207031,-1.738281 z m 0,1.730468 c 1.079923,0 2.159568,0.410142 2.982422,1.232422 1.6451,1.645196 1.6451,4.317695 0,5.962891 -1.645195,1.645195 -4.317798,1.645188 -5.962891,0 -1.645198,-1.645198 -1.645198,-4.317693 0,-5.962891 0.822224,-0.822224 1.90065,-1.232422 2.980469,-1.232422 z" />
  <path
     id="path893"
     style="color:#000000;font-style:normal;font-variant:normal;font-weight:normal;font-stretch:normal;font-size:medium;line-height:normal;font-family:sans-serif;font-variant-ligatures:normal;font-variant-position:normal;font-variant-caps:normal;font-variant-numeric:normal;font-variant-alternates:normal;font-variant-east-asian:normal;font-feature-settings:normal;font-variation-settings:normal;text-indent:0;text-align:start;text-decoration:none;text-decoration-line:none;text-decoration-style:solid;text-decoration-color:#000000;letter-spacing:normal;word-spacing:normal;text-transform:none;writing-mode:lr-tb;direction:ltr;text-orientation:mixed;dominant-baseline:auto;baseline-shift:baseline;text-anchor:start;white-space:normal;shape-padding:0;shape-margin:0;inline-size:0;clip-rule:nonzero;display:inline;overflow:visible;visibility:visible;isolation:auto;mix-blend-mode:normal;color-interpolation:sRGB;color-interpolation-filters:linearRGB;solid-color:#000000;solid-opacity:1;vector-effect:none;fill:#0d6efd;fill-opacity:1;fill-rule:nonzero;stroke:none;stroke-width:0.4;stroke-linecap:butt;stroke-linejoin:miter;stroke-miterlimit:4;stroke-dasharray:none;stroke-dashoffset:0;stroke-opacity:1;color-rendering:auto;image-rendering:auto;shape-rendering:auto;text-rendering:auto;enable-background:accumulate;stop-color:#000000;stop-opacity:1"
     d="m 26.873982,12.71858 c -0.873055,-2e-6 -1.746532,0.33247 -2.410156,0.996094 -1.327419,1.327312 -1.327428,3.491144 0,4.818359 0.663688,0.663688 1.538091,0.998047 2.410156,0.998047 0.872628,0 1.745213,-0.334313 2.408203,-0.998047 0.33681,-0.33681 0.33681,-0.887799 0,-1.224609 -0.336647,-0.336046 -0.88855,-0.336965 -1.224609,0 -0.653893,0.655056 -1.714353,0.654609 -2.369141,0 -0.654018,-0.654645 -0.654018,-1.714496 0,-2.369141 0.65402,-0.65393 1.714543,-0.654598 2.369141,0 0.336093,0.336869 0.888014,0.335997 1.224609,0 0.336828,-0.336828 0.336828,-0.887781 0,-1.224609 -0.663333,-0.663652 -1.535148,-0.996092 -2.408203,-0.996094 z" />
</svg>
