<?xml version="1.0" encoding="UTF-8" standalone="no"?>
<svg xmlns="http://www.w3.org/2000/svg" width="43" height="43" viewBox="0 0 43 43" fill="none">

<path
     id="path1576"
     style="color:#000000;font-style:normal;font-variant:normal;font-weight:normal;font-stretch:normal;font-size:medium;line-height:normal;font-family:sans-serif;font-variant-ligatures:normal;font-variant-position:normal;font-variant-caps:normal;font-variant-numeric:normal;font-variant-alternates:normal;font-variant-east-asian:normal;font-feature-settings:normal;font-variation-settings:normal;text-indent:0;text-align:start;text-decoration:none;text-decoration-line:none;text-decoration-style:solid;text-decoration-color:#000000;letter-spacing:normal;word-spacing:normal;text-transform:none;writing-mode:lr-tb;direction:ltr;text-orientation:mixed;dominant-baseline:auto;baseline-shift:baseline;text-anchor:start;white-space:normal;shape-padding:0;shape-margin:0;inline-size:0;clip-rule:nonzero;display:inline;overflow:visible;visibility:visible;isolation:auto;mix-blend-mode:normal;color-interpolation:sRGB;color-interpolation-filters:linearRGB;solid-color:#000000;solid-opacity:1;vector-effect:none;fill:#0d6efd;fill-opacity:1;fill-rule:nonzero;stroke:none;stroke-width:0.2;stroke-linecap:butt;stroke-linejoin:miter;stroke-miterlimit:4;stroke-dasharray:none;stroke-dashoffset:0;stroke-opacity:1;color-rendering:auto;image-rendering:auto;shape-rendering:auto;text-rendering:auto;enable-background:accumulate;stop-color:#000000;stop-opacity:1"
     d="m 11.172094,8.3322534 c -0.432836,0 -0.785156,0.3522159 -0.785156,0.7851559 0,0.432941 0.35232,0.785157 0.785156,0.785157 h 18.324219 c 1.541937,0 2.796875,1.2590217 2.796875,2.8085937 v 8.011718 c 0,0.432934 0.352308,0.78711 0.785156,0.78711 0.432848,0 0.787109,-0.354176 0.787109,-0.78711 V 12.71116 c 0,-2.413691 -1.961057,-4.3789064 -4.36914,-4.3789066 z" />
  <path
     id="path1569"
     style="color:#000000;font-style:normal;font-variant:normal;font-weight:normal;font-stretch:normal;font-size:medium;line-height:normal;font-family:sans-serif;font-variant-ligatures:normal;font-variant-position:normal;font-variant-caps:normal;font-variant-numeric:normal;font-variant-alternates:normal;font-variant-east-asian:normal;font-feature-settings:normal;font-variation-settings:normal;text-indent:0;text-align:start;text-decoration:none;text-decoration-line:none;text-decoration-style:solid;text-decoration-color:#000000;letter-spacing:normal;word-spacing:normal;text-transform:none;writing-mode:lr-tb;direction:ltr;text-orientation:mixed;dominant-baseline:auto;baseline-shift:baseline;text-anchor:start;white-space:normal;shape-padding:0;shape-margin:0;inline-size:0;clip-rule:nonzero;display:inline;overflow:visible;visibility:visible;isolation:auto;mix-blend-mode:normal;color-interpolation:sRGB;color-interpolation-filters:linearRGB;solid-color:#000000;solid-opacity:1;vector-effect:none;fill:#0d6efd;fill-opacity:1;fill-rule:nonzero;stroke:none;stroke-width:0.2;stroke-linecap:butt;stroke-linejoin:miter;stroke-miterlimit:4;stroke-dasharray:none;stroke-dashoffset:0;stroke-opacity:1;color-rendering:auto;image-rendering:auto;shape-rendering:auto;text-rendering:auto;enable-background:accumulate;stop-color:#000000;stop-opacity:1"
     d="M 5.6681875,8.3322534 C 3.2601039,8.3322536 1.301,10.297467 1.301,12.71116 v 12.074218 c 0,2.41378 1.959105,4.38086 4.3671875,4.38086 h 0.8203124 l 3.5312501,4.15625 c 0.149285,0.175837 0.36899,0.277343 0.59961,0.277343 0.230576,0 0.448397,-0.101509 0.597656,-0.277343 l 3.53125,-4.15625 h 10.685547 c 0.43283,0 0.787109,-0.354159 0.787109,-0.78711 0,-0.432951 -0.354261,-0.785156 -0.787109,-0.785156 H 14.384985 c -0.201325,0 -0.378485,0.105639 -0.523438,0.242188 v 0.09961 l -0.07617,-0.06445 -3.166015,3.728515 -3.1679694,-3.728515 -0.00195,-0.002 -0.029297,-0.0332 H 7.3752187 C 7.2302251,27.699586 7.0530773,27.593972 6.8517812,27.593972 H 5.6681875 c -1.541967,0 -2.7968751,-1.259021 -2.796875,-2.808594 V 12.71116 c 0,-1.549574 1.2549069,-2.8085937 2.796875,-2.8085937 h 2.7871093 c 0.4328527,0 0.7871094,-0.352211 0.7871094,-0.785157 0,-0.4329453 -0.3542567,-0.7851559 -0.7871094,-0.7851559 z" />
  <path
     id="path1562"
     style="color:#000000;font-style:normal;font-variant:normal;font-weight:normal;font-stretch:normal;font-size:medium;line-height:normal;font-family:sans-serif;font-variant-ligatures:normal;font-variant-position:normal;font-variant-caps:normal;font-variant-numeric:normal;font-variant-alternates:normal;font-variant-east-asian:normal;font-feature-settings:normal;font-variation-settings:normal;text-indent:0;text-align:start;text-decoration:none;text-decoration-line:none;text-decoration-style:solid;text-decoration-color:#000000;letter-spacing:normal;word-spacing:normal;text-transform:none;writing-mode:lr-tb;direction:ltr;text-orientation:mixed;dominant-baseline:auto;baseline-shift:baseline;text-anchor:start;white-space:normal;shape-padding:0;shape-margin:0;inline-size:0;clip-rule:nonzero;display:inline;overflow:visible;visibility:visible;isolation:auto;mix-blend-mode:normal;color-interpolation:sRGB;color-interpolation-filters:linearRGB;solid-color:#000000;solid-opacity:1;vector-effect:none;fill:#0d6efd;fill-opacity:1;fill-rule:nonzero;stroke:none;stroke-width:0.2;stroke-linecap:butt;stroke-linejoin:miter;stroke-miterlimit:4;stroke-dasharray:none;stroke-dashoffset:0;stroke-opacity:1;color-rendering:auto;image-rendering:auto;shape-rendering:auto;text-rendering:auto;enable-background:accumulate;stop-color:#000000;stop-opacity:1"
     d="m 6.0334218,34.185769 c -0.2520039,0 -0.4889904,0.119985 -0.6367187,0.324219 L 4.1388906,36.248269 H 4.0217031 c -1.5002622,0 -2.7207031,1.224421 -2.7207031,2.726562 0,1.502141 1.2204409,2.72461 2.7207031,2.72461 H 18.791235 c 1.500223,0 2.722656,-1.222471 2.722656,-2.72461 0,-1.502139 -1.222433,-2.726562 -2.722656,-2.726562 h -5.326172 c -0.432831,0 -0.78711,0.352205 -0.78711,0.785156 0,0.432951 0.354262,0.787109 0.78711,0.787109 h 5.326172 c 0.634367,0 1.15039,0.516471 1.15039,1.154297 0,0.637719 -0.516033,1.154297 -1.15039,1.154297 H 4.0217031 c -0.6344115,0 -1.1503907,-0.516573 -1.1503906,-1.154297 0,-0.637831 0.5159695,-1.154297 1.1503906,-1.154297 h 0.5195312 c 0.2520257,0 0.4889968,-0.122061 0.6367188,-0.326171 l 0.8554687,-1.183594 0.8554688,1.183594 c 0.1476959,0.203991 0.3846372,0.326171 0.6367187,0.326171 h 3.2304687 c 0.432848,0 0.785157,-0.354175 0.785157,-0.787109 0,-0.432933 -0.352326,-0.785156 -0.785157,-0.785156 H 7.9279531 L 6.6701406,34.509988 C 6.5224382,34.305873 6.2854731,34.185769 6.0334218,34.185769 Z" />
  <path
     id="path1548"
     style="color:#000000;font-style:normal;font-variant:normal;font-weight:normal;font-stretch:normal;font-size:medium;line-height:normal;font-family:sans-serif;font-variant-ligatures:normal;font-variant-position:normal;font-variant-caps:normal;font-variant-numeric:normal;font-variant-alternates:normal;font-variant-east-asian:normal;font-feature-settings:normal;font-variation-settings:normal;text-indent:0;text-align:start;text-decoration:none;text-decoration-line:none;text-decoration-style:solid;text-decoration-color:#000000;letter-spacing:normal;word-spacing:normal;text-transform:none;writing-mode:lr-tb;direction:ltr;text-orientation:mixed;dominant-baseline:auto;baseline-shift:baseline;text-anchor:start;white-space:normal;shape-padding:0;shape-margin:0;inline-size:0;clip-rule:nonzero;display:inline;overflow:visible;visibility:visible;isolation:auto;mix-blend-mode:normal;color-interpolation:sRGB;color-interpolation-filters:linearRGB;solid-color:#000000;solid-opacity:1;vector-effect:none;fill:#0d6efd;fill-opacity:1;fill-rule:nonzero;stroke:none;stroke-width:0.2;stroke-linecap:butt;stroke-linejoin:miter;stroke-miterlimit:4;stroke-dasharray:none;stroke-dashoffset:0;stroke-opacity:1;color-rendering:auto;image-rendering:auto;shape-rendering:auto;text-rendering:auto;enable-background:accumulate;stop-color:#000000;stop-opacity:1"
     d="m 15.941625,14.888894 c -0.432848,0 -0.785156,0.352223 -0.785156,0.785156 v 6.25 c 0,0.432934 0.352326,0.787109 0.785156,0.78711 h 3.125 c 0.432831,0 0.785156,-0.354176 0.785156,-0.78711 0,-0.432933 -0.352308,-0.785156 -0.785156,-0.785156 h -2.33789 V 19.58616 h 2.33789 c 0.432831,0 0.785156,-0.354176 0.785156,-0.78711 0,-0.432933 -0.352308,-0.785156 -0.785156,-0.785156 h -2.33789 V 16.46116 h 2.33789 c 0.432831,-1e-6 0.785156,-0.354176 0.785156,-0.78711 0,-0.432933 -0.352308,-0.785156 -0.785156,-0.785156 z" />
  <path
     id="path1555"
     style="color:#000000;font-style:normal;font-variant:normal;font-weight:normal;font-stretch:normal;font-size:medium;line-height:normal;font-family:sans-serif;font-variant-ligatures:normal;font-variant-position:normal;font-variant-caps:normal;font-variant-numeric:normal;font-variant-alternates:normal;font-variant-east-asian:normal;font-feature-settings:normal;font-variation-settings:normal;text-indent:0;text-align:start;text-decoration:none;text-decoration-line:none;text-decoration-style:solid;text-decoration-color:#000000;letter-spacing:normal;word-spacing:normal;text-transform:none;writing-mode:lr-tb;direction:ltr;text-orientation:mixed;dominant-baseline:auto;baseline-shift:baseline;text-anchor:start;white-space:normal;shape-padding:0;shape-margin:0;inline-size:0;clip-rule:nonzero;display:inline;overflow:visible;visibility:visible;isolation:auto;mix-blend-mode:normal;color-interpolation:sRGB;color-interpolation-filters:linearRGB;solid-color:#000000;solid-opacity:1;vector-effect:none;fill:#0d6efd;fill-opacity:1;fill-rule:nonzero;stroke:none;stroke-width:0.2;stroke-linecap:butt;stroke-linejoin:miter;stroke-miterlimit:4;stroke-dasharray:none;stroke-dashoffset:0;stroke-opacity:1;color-rendering:auto;image-rendering:auto;shape-rendering:auto;text-rendering:auto;enable-background:accumulate;stop-color:#000000;stop-opacity:1"
     d="m 10.08225,14.888894 c -0.4328654,0 -0.7851563,0.352219 -0.7851563,0.785156 v 3.125 c 0,0.432937 0.3523089,0.78711 0.7851563,0.78711 h 2.339844 v 1.552734 H 10.08225 c -0.4328654,0 -0.7851563,0.352219 -0.7851563,0.785156 0,0.432937 0.3523089,0.78711 0.7851563,0.78711 h 3.125 c 0.432916,0 0.78711,-0.354176 0.78711,-0.78711 v -3.125 c 0,-0.432933 -0.354176,-0.785156 -0.78711,-0.785156 H 10.86936 V 16.46116 h 2.33789 c 0.432916,0 0.78711,-0.354176 0.78711,-0.78711 0,-0.432933 -0.354176,-0.785156 -0.78711,-0.785156 z" />
  <path
     id="path1540"
     style="color:#000000;font-style:normal;font-variant:normal;font-weight:normal;font-stretch:normal;font-size:medium;line-height:normal;font-family:sans-serif;font-variant-ligatures:normal;font-variant-position:normal;font-variant-caps:normal;font-variant-numeric:normal;font-variant-alternates:normal;font-variant-east-asian:normal;font-feature-settings:normal;font-variation-settings:normal;text-indent:0;text-align:start;text-decoration:none;text-decoration-line:none;text-decoration-style:solid;text-decoration-color:#000000;letter-spacing:normal;word-spacing:normal;text-transform:none;writing-mode:lr-tb;direction:ltr;text-orientation:mixed;dominant-baseline:auto;baseline-shift:baseline;text-anchor:start;white-space:normal;shape-padding:0;shape-margin:0;inline-size:0;clip-rule:nonzero;display:inline;overflow:visible;visibility:visible;isolation:auto;mix-blend-mode:normal;color-interpolation:sRGB;color-interpolation-filters:linearRGB;solid-color:#000000;solid-opacity:1;vector-effect:none;fill:#0d6efd;fill-opacity:1;fill-rule:nonzero;stroke:none;stroke-width:0.2;stroke-linecap:butt;stroke-linejoin:miter;stroke-miterlimit:4;stroke-dasharray:none;stroke-dashoffset:0;stroke-opacity:1;color-rendering:auto;image-rendering:auto;shape-rendering:auto;text-rendering:auto;enable-background:accumulate;stop-color:#000000;stop-opacity:1"
     d="m 21.801,14.888894 c -0.432848,0 -0.785156,0.352223 -0.785156,0.785156 v 6.25 c 0,0.432934 0.352326,0.787109 0.785156,0.78711 h 3.125 c 0.432831,0 0.785156,-0.354176 0.785157,-0.78711 v -6.25 c 0,-0.432933 -0.352309,-0.785156 -0.785157,-0.785156 z m 0.785157,1.572266 h 1.554687 v 4.677734 h -1.554687 z" />
  <path
     id="path1532"
     style="color:#000000;font-style:normal;font-variant:normal;font-weight:normal;font-stretch:normal;font-size:medium;line-height:normal;font-family:sans-serif;font-variant-ligatures:normal;font-variant-position:normal;font-variant-caps:normal;font-variant-numeric:normal;font-variant-alternates:normal;font-variant-east-asian:normal;font-feature-settings:normal;font-variation-settings:normal;text-indent:0;text-align:start;text-decoration:none;text-decoration-line:none;text-decoration-style:solid;text-decoration-color:#000000;letter-spacing:normal;word-spacing:normal;text-transform:none;writing-mode:lr-tb;direction:ltr;text-orientation:mixed;dominant-baseline:auto;baseline-shift:baseline;text-anchor:start;white-space:normal;shape-padding:0;shape-margin:0;inline-size:0;clip-rule:nonzero;display:inline;overflow:visible;visibility:visible;isolation:auto;mix-blend-mode:normal;color-interpolation:sRGB;color-interpolation-filters:linearRGB;solid-color:#000000;solid-opacity:1;vector-effect:none;fill:#0d6efd;fill-opacity:1;fill-rule:nonzero;stroke:none;stroke-width:0.2;stroke-linecap:butt;stroke-linejoin:miter;stroke-miterlimit:4;stroke-dasharray:none;stroke-dashoffset:0;stroke-opacity:1;color-rendering:auto;image-rendering:auto;shape-rendering:auto;text-rendering:auto;enable-background:accumulate;stop-color:#000000;stop-opacity:1"
     d="m 34.349828,26.371316 c -1.804232,0 -3.273437,1.469108 -3.273437,3.273437 0,1.804233 1.469205,3.273438 3.273437,3.273438 1.804233,0 3.275391,-1.469205 3.275391,-3.273438 0,-0.432933 -0.354279,-0.785156 -0.787109,-0.785156 -0.432831,0 -0.785157,0.352223 -0.785157,0.785156 0,0.939254 -0.763969,1.703125 -1.703125,1.703125 -0.939049,0 -1.701172,-0.763871 -1.701171,-1.703125 0,-0.939148 0.762128,-1.701172 1.701171,-1.701172 0.246655,0 0.483652,0.05151 0.705079,0.152344 0.394103,0.179512 0.861625,0.0032 1.041015,-0.390625 0.179269,-0.394072 0.0033,-0.861626 -0.390625,-1.041016 -0.426826,-0.194236 -0.883941,-0.292968 -1.355469,-0.292968 z" />
  <path
     id="path1524"
     style="color:#000000;font-style:normal;font-variant:normal;font-weight:normal;font-stretch:normal;font-size:medium;line-height:normal;font-family:sans-serif;font-variant-ligatures:normal;font-variant-position:normal;font-variant-caps:normal;font-variant-numeric:normal;font-variant-alternates:normal;font-variant-east-asian:normal;font-feature-settings:normal;font-variation-settings:normal;text-indent:0;text-align:start;text-decoration:none;text-decoration-line:none;text-decoration-style:solid;text-decoration-color:#000000;letter-spacing:normal;word-spacing:normal;text-transform:none;writing-mode:lr-tb;direction:ltr;text-orientation:mixed;dominant-baseline:auto;baseline-shift:baseline;text-anchor:start;white-space:normal;shape-padding:0;shape-margin:0;inline-size:0;clip-rule:nonzero;display:inline;overflow:visible;visibility:visible;isolation:auto;mix-blend-mode:normal;color-interpolation:sRGB;color-interpolation-filters:linearRGB;solid-color:#000000;solid-opacity:1;vector-effect:none;fill:#0d6efd;fill-opacity:1;fill-rule:nonzero;stroke:none;stroke-width:0.2;stroke-linecap:butt;stroke-linejoin:miter;stroke-miterlimit:4;stroke-dasharray:none;stroke-dashoffset:0;stroke-opacity:1;color-rendering:auto;image-rendering:auto;shape-rendering:auto;text-rendering:auto;enable-background:accumulate;stop-color:#000000;stop-opacity:1"
     d="m 24.20725,1.3010035 c -1.500224,0 -2.720703,1.2224414 -2.720703,2.7246093 0,1.5021006 1.220479,2.7265625 2.720703,2.7265625 h 2.205078 c 0.432836,0 0.785157,-0.352214 0.785157,-0.7851562 0,-0.4329336 -0.352321,-0.7871094 -0.785157,-0.7871094 H 24.20725 c -0.634364,0 -1.148437,-0.5165025 -1.148437,-1.1542969 0,-0.6377943 0.51408,-1.1542968 1.148437,-1.1542968 h 14.769531 c 0.634366,0 1.150391,0.5165133 1.150391,1.1542968 0,0.6378051 -0.516033,1.1542969 -1.150391,1.1542969 h -0.517578 c -0.251978,0 -0.488965,0.1219853 -0.636718,0.3261719 l -0.855469,1.1835937 -0.857422,-1.1835937 -0.02539,-0.037109 -0.01953,-0.00195 C 35.916113,5.2918431 35.704523,5.1799097 35.472875,5.1799097 h -6.351562 c -0.432836,0 -0.785156,0.3541672 -0.785156,0.7871094 0,0.4329422 0.352322,0.7851562 0.785156,0.7851562 h 5.951172 l 1.257812,1.7382813 0.02539,0.037109 0.01953,0.00195 c 0.148285,0.1746895 0.358349,0.2851562 0.589844,0.2851562 0.252064,0 0.490918,-0.1200322 0.638672,-0.3242187 l 1.255859,-1.7382813 h 0.117187 c 1.500226,0 2.722657,-1.2243803 2.722657,-2.7265625 C 41.699436,2.5235812 40.477005,1.301 38.976779,1.301 Z" />

</svg>
