<svg xmlns="http://www.w3.org/2000/svg" viewBox="0 0 166.83 166.83"><defs><style>.a{fill:#f2f2f2;}.b{fill:#1a1a1a;}</style></defs><title>Recurso 34</title><rect class="a" width="166.83" height="166.83" rx="83.42" ry="83.42"/><path class="b" d="M83.42,8.42a75,75,0,1,0,75,75A75.09,75.09,0,0,0,83.42,8.42Zm36.74,19.84L99.83,40V27.6H91.11V45l-7.7,4.44L75.72,45V27.6H67V40L46.67,28.25a66.27,66.27,0,0,1,73.48,0Zm-7.59,38L99.83,58.94V50.06l12.73-7.35Zm0,24.17L99.83,97.82V69l12.73,7.35Zm8.72-9.06,3.49,2-3.49,2Zm-67,19.13L67,107.89v8.89l-12.73,7.35Zm0-24.17L67,69v28.8L54.27,90.46Zm-8.72,9.06-3.49-2,3.49-2ZM67,58.94,54.27,66.3V42.71L67,50.06Zm8.72,43.91V64l7.7-4.44L91.11,64v38.87l-7.7,4.44Zm24.11,5,12.73-7.35v23.59l-12.73-7.35ZM17.14,83.42A66.19,66.19,0,0,1,45.54,29v42.3L24.61,83.42,45.54,95.5v42.3A66.19,66.19,0,0,1,17.14,83.42Zm29.54,55.16L67,126.84v12.39h8.72V121.81l7.7-4.44,7.7,4.44v17.42h8.72V126.84l20.33,11.73a66.27,66.27,0,0,1-73.48,0Zm74.61-.78V95.5l20.93-12.08L121.29,71.33V29a66.25,66.25,0,0,1,0,108.76Z"/></svg>