<svg xmlns="http://www.w3.org/2000/svg" viewBox="0 0 400 400">
	<defs><style>.a{fill:none;}</style></defs>
<title>Recurso 6</title>
<rect class="a" width="400" height="400"/>
<circle class="icon" cx="200" cy="200" r="100"/>
<path class="icon" d="M362.5,212.5H325a12.5,12.5,0,0,1,0-25h37.5a12.5,12.5,0,0,1,0,25Z"/>
<path class="icon" d="M75,212.5H37.5a12.5,12.5,0,1,1,0-25H75a12.5,12.5,0,0,1,0,25Z"/>
<path class="icon" d="M200,87.5A12.5,12.5,0,0,1,187.5,75V37.5a12.5,12.5,0,1,1,25,0V75A12.5,12.5,0,0,1,200,87.5Z"/>
<path class="icon" d="M200,375a12.5,12.5,0,0,1-12.5-12.5V325a12.5,12.5,0,0,1,25,0v37.5A12.5,12.5,0,0,1,200,375Z"/>
<path class="icon" d="M314.9,327.41a12.46,12.46,0,0,1-8.84-3.66l-26.52-26.52a12.5,12.5,0,0,1,17.68-17.68l26.52,26.52a12.5,12.5,0,0,1-8.84,21.34Z"/>
<path class="icon" d="M111.61,124.11a12.46,12.46,0,0,1-8.84-3.66L76.26,93.93A12.5,12.5,0,0,1,93.93,76.26l26.52,26.52a12.5,12.5,0,0,1-8.84,21.34Z"/>
<path class="icon" d="M288.39,124.11a12.5,12.5,0,0,1-8.84-21.34l26.52-26.52a12.5,12.5,0,0,1,17.68,17.68l-26.52,26.52A12.46,12.46,0,0,1,288.39,124.11Z"/>
<path class="icon" d="M85.1,327.41a12.5,12.5,0,0,1-8.84-21.34l26.52-26.52a12.5,12.5,0,0,1,17.68,17.68L93.93,323.74A12.46,12.46,0,0,1,85.1,327.41Z"/>
</svg>