<svg xmlns="http://www.w3.org/2000/svg" viewBox="0 0 400 400">
	<defs><style>.a{fill:none;}</style></defs>
<title>Sun icon</title>
<rect class="a" width="400" height="400"/>
<circle class="icon" cx="200" cy="200" r="100"/>
<path class="icon" d="M85.1,327.41a12.5,12.5,0,0,1-8.84-21.34l17.68-17.68a12.5,12.5,0,0,1,17.68,17.68L93.93,323.74A12.46,12.46,0,0,1,85.1,327.41Z"/>
<path class="icon" d="M297.23,115.27a12.5,12.5,0,0,1-8.84-21.34l17.68-17.68a12.5,12.5,0,0,1,17.68,17.68l-17.68,17.68A12.46,12.46,0,0,1,297.23,115.27Z"/>
<path class="icon" d="M62.5,212.5h-25a12.5,12.5,0,1,1,0-25h25a12.5,12.5,0,0,1,0,25Z"/>
<path class="icon" d="M362.5,212.5h-25a12.5,12.5,0,0,1,0-25h25a12.5,12.5,0,0,1,0,25Z"/>
<path class="icon" d="M200,375a12.5,12.5,0,0,1-12.5-12.5v-25a12.5,12.5,0,0,1,25,0v25A12.5,12.5,0,0,1,200,375Z"/>
<path class="icon" d="M200,75a12.5,12.5,0,0,1-12.5-12.5v-25a12.5,12.5,0,1,1,25,0v25A12.5,12.5,0,0,1,200,75Z"/>
<path class="icon" d="M102.77,115.27a12.46,12.46,0,0,1-8.84-3.66L76.26,93.93A12.5,12.5,0,0,1,93.93,76.26l17.68,17.68a12.5,12.5,0,0,1-8.84,21.34Z"/>
<path class="icon" d="M314.9,327.41a12.46,12.46,0,0,1-8.84-3.66l-17.68-17.68a12.5,12.5,0,0,1,17.68-17.68l17.68,17.68a12.5,12.5,0,0,1-8.84,21.34Z"/>
</svg>