<svg xmlns="http://www.w3.org/2000/svg" viewBox="0 0 182.34 24.46">
<title>Joksan Télles - Logo</title>
<path class="logo" d="M13.58,1.12V15a6.59,6.59,0,0,1-.88,3.45,5.93,5.93,0,0,1-2.43,2.27,7.5,7.5,0,0,1-3.48.79,8.63,8.63,0,0,1-3.55-.68A5.2,5.2,0,0,1,.86,18.71,6.61,6.61,0,0,1,0,15.22H4.35A3,3,0,0,0,5,17.36,2.45,2.45,0,0,0,6.79,18a2.22,2.22,0,0,0,1.81-.8A3.38,3.38,0,0,0,9.26,15V1.12Z"/>
<path class="logo" d="M17,9.68A6.33,6.33,0,0,1,19.4,7a7.18,7.18,0,0,1,3.82-1,7.24,7.24,0,0,1,3.84,1,6.32,6.32,0,0,1,2.44,2.7,8.88,8.88,0,0,1,.83,3.92v.29a8.84,8.84,0,0,1-.83,3.91,6.34,6.34,0,0,1-2.44,2.7,7.18,7.18,0,0,1-3.82,1,7.24,7.24,0,0,1-3.84-1A6.32,6.32,0,0,1,17,17.8a8.84,8.84,0,0,1-.83-3.91V13.6A8.88,8.88,0,0,1,17,9.68ZM21,17a2.44,2.44,0,0,0,2.25,1.15A2.41,2.41,0,0,0,25.47,17a5.89,5.89,0,0,0,.7-3.08V13.6a5.93,5.93,0,0,0-.7-3.08,2.43,2.43,0,0,0-2.25-1.17A2.4,2.4,0,0,0,21,10.53a5.93,5.93,0,0,0-.7,3.07v.29A5.87,5.87,0,0,0,21,17Z"/>
<path class="logo" d="M38.26,15.33l-1.39,1.39V21.2H32.7V0h4.17V11.6l.69-.9,3.74-4.43h5l-5.35,6.19,5.78,8.73H41.94Z"/>
<path class="logo" d="M47.57,10.66a4.05,4.05,0,0,1,.72-2.33,5,5,0,0,1,2.09-1.7A7.5,7.5,0,0,1,53.57,6a8.48,8.48,0,0,1,3.35.61,5,5,0,0,1,2.21,1.71,4.24,4.24,0,0,1,.77,2.5H55.74a1.83,1.83,0,0,0-.54-1.4,2.33,2.33,0,0,0-1.64-.5,2.29,2.29,0,0,0-1.46.43,1.34,1.34,0,0,0-.55,1.1,1.21,1.21,0,0,0,.61,1,6.14,6.14,0,0,0,2.09.68,14.18,14.18,0,0,1,3,.86,4.83,4.83,0,0,1,2,1.47,3.79,3.79,0,0,1,.72,2.39,3.83,3.83,0,0,1-.78,2.35,5.13,5.13,0,0,1-2.22,1.64,8.75,8.75,0,0,1-3.35.59,7.68,7.68,0,0,1-3.48-.74,5.62,5.62,0,0,1-2.24-1.9,4.32,4.32,0,0,1-.77-2.41H51A1.92,1.92,0,0,0,51.8,18a3.17,3.17,0,0,0,1.88.52,2.79,2.79,0,0,0,1.63-.41,1.28,1.28,0,0,0,.57-1.1,1.07,1.07,0,0,0-.26-.72,2.37,2.37,0,0,0-.91-.56,12.33,12.33,0,0,0-1.86-.52Q47.57,14.1,47.57,10.66Z"/>
<path class="logo" d="M74.72,19.58A5.37,5.37,0,0,0,75.17,21v.23H71a4.43,4.43,0,0,1-.4-1.34,4.74,4.74,0,0,1-3.74,1.61,5.66,5.66,0,0,1-2.57-.58,4.58,4.58,0,0,1-1.83-1.6,4.11,4.11,0,0,1-.67-2.3,4.23,4.23,0,0,1,1.75-3.64,8.72,8.72,0,0,1,5.16-1.28h1.7v-.84a2.29,2.29,0,0,0-.52-1.61,2,2,0,0,0-1.57-.57,2.23,2.23,0,0,0-1.48.45,1.58,1.58,0,0,0-.53,1.28H62.12a4,4,0,0,1,.79-2.43,5.34,5.34,0,0,1,2.25-1.72A8.34,8.34,0,0,1,68.53,6a7.8,7.8,0,0,1,3.13.59A4.74,4.74,0,0,1,73.8,8.37a5.2,5.2,0,0,1,.77,2.9v6.25A11.23,11.23,0,0,0,74.72,19.58Zm-5.33-1.65a2.57,2.57,0,0,0,1-1v-2.5H68.81a3.19,3.19,0,0,0-2.16.63,2.08,2.08,0,0,0-.71,1.63,1.45,1.45,0,0,0,.5,1.15,2,2,0,0,0,1.35.44A3.17,3.17,0,0,0,69.39,17.93Z"/>
<path class="logo" d="M89.25,7.35a6.42,6.42,0,0,1,1.23,4.39V21.2H86.31V11.73a2.43,2.43,0,0,0-.57-1.84A2.53,2.53,0,0,0,84,9.37a2.79,2.79,0,0,0-1.41.34,2.65,2.65,0,0,0-1,1V21.2H77.44V6.28h3.9L81.48,8a5.24,5.24,0,0,1,1.88-1.49A5.62,5.62,0,0,1,85.77,6,4.47,4.47,0,0,1,89.25,7.35Z"/>
<path class="logo" d="M108.93,4.62h-6.13V21.2H98.49V4.62h-6V1.12h16.47Z"/>
<path class="logo" d="M124.11,15.09h-9.44a3.67,3.67,0,0,0,1.16,2.21,3.44,3.44,0,0,0,2.37.82,4.85,4.85,0,0,0,2-.41,4.11,4.11,0,0,0,1.57-1.22l2,2.3a6.1,6.1,0,0,1-2.3,1.9,7.67,7.67,0,0,1-3.54.77,7.89,7.89,0,0,1-4-1,6.64,6.64,0,0,1-2.59-2.62,7.5,7.5,0,0,1-.9-3.66v-.52a9.1,9.1,0,0,1,.84-4A6.42,6.42,0,0,1,113.72,7a7,7,0,0,1,3.75-1,6.86,6.86,0,0,1,3.6.9,5.73,5.73,0,0,1,2.26,2.55,9.07,9.07,0,0,1,.77,3.88ZM120,12a2.84,2.84,0,0,0-.67-1.92,2.46,2.46,0,0,0-1.91-.7,2.31,2.31,0,0,0-1.86.79,4.25,4.25,0,0,0-.88,2.17H120Zm2.08-12-3.84,4.29h-3.38L117.61,0Z"/>
<path class="logo" d="M126.5,21.2V0h4.18V21.2Z"/>
<path class="logo" d="M134.07,21.2V0h4.18V21.2Z"/>
<path class="logo" d="M154.57,15.09h-9.44a3.67,3.67,0,0,0,1.16,2.21,3.44,3.44,0,0,0,2.37.82,4.85,4.85,0,0,0,2-.41,4.11,4.11,0,0,0,1.57-1.22l2,2.3a6.1,6.1,0,0,1-2.3,1.9,7.67,7.67,0,0,1-3.54.77,7.89,7.89,0,0,1-4-1,6.64,6.64,0,0,1-2.59-2.62,7.5,7.5,0,0,1-.9-3.66v-.52a9.1,9.1,0,0,1,.84-4A6.42,6.42,0,0,1,144.18,7a7,7,0,0,1,3.75-1,6.86,6.86,0,0,1,3.6.9,5.73,5.73,0,0,1,2.26,2.55,9.07,9.07,0,0,1,.77,3.88ZM150.49,12a2.84,2.84,0,0,0-.67-1.92,2.46,2.46,0,0,0-1.91-.7,2.31,2.31,0,0,0-1.86.79,4.25,4.25,0,0,0-.88,2.17h5.31Z"/>
<path class="logo" d="M156.43,10.66a4.05,4.05,0,0,1,.72-2.33,5,5,0,0,1,2.09-1.7A7.5,7.5,0,0,1,162.43,6a8.48,8.48,0,0,1,3.35.61A5,5,0,0,1,168,8.33a4.24,4.24,0,0,1,.77,2.5H164.6a1.83,1.83,0,0,0-.54-1.4,2.33,2.33,0,0,0-1.64-.5,2.29,2.29,0,0,0-1.46.43,1.34,1.34,0,0,0-.55,1.1,1.21,1.21,0,0,0,.61,1,6.14,6.14,0,0,0,2.09.68,14.18,14.18,0,0,1,3,.86,4.83,4.83,0,0,1,2,1.47,3.79,3.79,0,0,1,.72,2.39,3.83,3.83,0,0,1-.78,2.35,5.13,5.13,0,0,1-2.22,1.64,8.75,8.75,0,0,1-3.35.59,7.68,7.68,0,0,1-3.48-.74,5.62,5.62,0,0,1-2.24-1.9,4.32,4.32,0,0,1-.77-2.41h3.93a1.92,1.92,0,0,0,.77,1.59,3.17,3.17,0,0,0,1.88.52,2.79,2.79,0,0,0,1.63-.41,1.28,1.28,0,0,0,.57-1.1,1.07,1.07,0,0,0-.26-.72,2.37,2.37,0,0,0-.91-.56,12.33,12.33,0,0,0-1.86-.52Q156.43,14.1,156.43,10.66Z"/>
<path class="logo" d="M169.8,24.46V21.2h12.54v3.26Z"/>
</svg>