<svg xmlns="http://www.w3.org/2000/svg" viewBox="0 0 30 30">
<defs><style>.a{fill:none;}</style></defs>
<title>Behance</title>
<rect class="a" width="30" height="30"/>
<path class="sm" d="M0,24.06V5.58H8.69a9.52,9.52,0,0,1,3.17.47,3.64,3.64,0,0,1,2.42,2.18,5.53,5.53,0,0,1,.27,2.58,3.68,3.68,0,0,1-.88,2,4.61,4.61,0,0,1-1.37,1.07L12.1,14l.55.2a4.17,4.17,0,0,1,2.7,3.36,5.66,5.66,0,0,1-.29,3.19,4.83,4.83,0,0,1-2.47,2.53,8.24,8.24,0,0,1-3.7.77H0Zm4.06-8.2V20.9h.13c1.49,0,3,0,4.47,0A4.77,4.77,0,0,0,10,20.67a1.9,1.9,0,0,0,1.36-1.47,3.39,3.39,0,0,0-.06-1.77,2,2,0,0,0-1.12-1.29,3.19,3.19,0,0,0-1.34-.3H4.2Zm0-2.83.07,0c1.52,0,3,0,4.55,0a1.91,1.91,0,0,0,2-1.93A1.89,1.89,0,0,0,9.12,8.89a5.73,5.73,0,0,0-1.29-.15c-1.19,0-2.38,0-3.58,0H4.06Z"/>
<path class="sm" d="M29.75,19.9a5.88,5.88,0,0,1-4.66,4.35,7.86,7.86,0,0,1-4.53-.39,5.93,5.93,0,0,1-3.48-3.75,7.9,7.9,0,0,1,0-5.45,6.31,6.31,0,0,1,5.1-4.25,6.87,6.87,0,0,1,3.51.26,5.93,5.93,0,0,1,3.34,2.87A8.54,8.54,0,0,1,30,18.18a.37.37,0,0,1,0,.06H20.31c0,.37.06.72.13,1.05A2.77,2.77,0,0,0,23,21.62,3.73,3.73,0,0,0,25.72,21a2.13,2.13,0,0,0,.75-.94.22.22,0,0,1,.16-.12Zm-9.4-4h6c-.05-.27-.08-.54-.15-.79a2.46,2.46,0,0,0-1.57-1.86,3.7,3.7,0,0,0-1.9-.14A2.8,2.8,0,0,0,20.35,15.92Z"/>
<path class="sm" d="M19.59,8.64V6.84h7.47V8.64Z"/>
</svg>