<svg xmlns="http://www.w3.org/2000/svg" viewBox="0 0 400 400">
	<defs><style>.a{fill:none;}</style></defs>
<title>CodePen</title>
<rect class="a" width="400" height="400"/>
<path class="sm" d="M374.87,132.1c0-.22-.09-.43-.12-.65-.07-.42-.15-.85-.26-1.26-.06-.25-.16-.49-.23-.73s-.24-.74-.39-1.1-.22-.5-.34-.74-.32-.67-.51-1-.29-.47-.43-.7-.41-.62-.64-.91-.34-.44-.52-.65-.49-.55-.75-.81-.39-.41-.6-.59-.56-.49-.85-.72-.45-.35-.68-.52-.17-.13-.25-.18L208,14.66a15.07,15.07,0,0,0-16.72,0L31,121.53l-.25.18c-.24.17-.46.34-.68.52s-.58.47-.85.72-.41.39-.6.59-.51.54-.75.81-.35.43-.52.65-.43.6-.63.91-.3.46-.43.7-.35.65-.51,1-.24.49-.34.74-.27.73-.39,1.1-.17.48-.24.73c-.11.42-.18.84-.26,1.26,0,.22-.09.43-.12.65a14.55,14.55,0,0,0-.14,2V240.93a14.81,14.81,0,0,0,.14,2c0,.21.08.43.12.64.08.43.15.85.26,1.26.07.25.16.49.24.73s.24.74.39,1.11.22.49.34.73.33.67.51,1,.28.46.43.69.41.62.63.91.34.44.52.65.48.55.75.81.39.41.6.59.56.49.85.72.44.35.68.52l.25.18,160.3,106.87a15,15,0,0,0,16.72,0l160.3-106.87.25-.18c.24-.17.46-.34.68-.52s.58-.47.85-.72.4-.39.6-.59.51-.54.75-.81.35-.42.52-.65.43-.6.64-.91l.43-.69c.19-.33.35-.66.51-1s.23-.48.34-.73.27-.74.39-1.11.17-.48.23-.73c.11-.42.19-.84.26-1.26,0-.21.09-.43.12-.64a15.73,15.73,0,0,0,.13-2V134.06A15.45,15.45,0,0,0,374.87,132.1ZM214.7,55.36l118.09,78.72L280,169.37,214.7,125.66Zm-30.14,0v70.3l-65.34,43.71L66.46,134.08ZM54.39,162.28,92.1,187.5,54.39,212.72ZM184.55,319.63,66.46,240.91l52.75-35.28,65.34,43.7Zm15.07-96.48L146.32,187.5l53.31-35.66,53.31,35.66Zm15.07,96.48v-70.3L280,205.64l52.75,35.28ZM344.85,212.72l-37.7-25.22,37.7-25.22Z"/>
</svg>