<svg xmlns="http://www.w3.org/2000/svg" viewBox="0 0 30 30">
<defs><style>.a{fill:none;}</style></defs>
<title>Clipboard</title>
<path class="sm" d="M5.86,8.19H9.19a.66.66,0,1,0,0-1.33H5.86a.66.66,0,0,0,0,1.33Z"/>
<path class="sm" d="M10,16.83H5.86a.66.66,0,0,0,0,1.33H10Z"/>
<path class="sm" d="M10,13.5H5.86a.66.66,0,0,0,0,1.33H10Z"/>
<path class="sm" d="M10,10.18H5.86a.66.66,0,0,0,0,1.33H10Z"/>
<path class="sm" d="M10,21.81H3.2V3.2h8.64V5h1.33V4.14l.89.89h1.88l-3-3L12.91,2h0l-.07,0h0l-.07,0h0l-.08,0H2.54a.66.66,0,0,0-.66.66V22.48a.66.66,0,0,0,.66.66H10Z"/>
<path class="sm" d="M28.12,12.49v0a.66.66,0,0,0,0-.08h0l0-.08v0l0-.07h0l0-.07v0L27.93,12l-5-5L22.88,7h0l-.07,0h0l-.07,0h0l-.08,0H12.51a.66.66,0,0,0-.66.66V27.46a.66.66,0,0,0,.66.66h15a.66.66,0,0,0,.66-.66v-15Zm-2.27-.64H23.14V9.13Zm-12.68,15V8.19h8.64v4.32a.66.66,0,0,0,.66.66H26.8V26.8Z"/>
<path class="sm" d="M15.83,13.17h3.32a.66.66,0,1,0,0-1.33H15.83a.66.66,0,1,0,0,1.33Z"/>
<path class="sm" d="M24.14,15.17H15.83a.66.66,0,0,0,0,1.33h8.31a.66.66,0,1,0,0-1.33Z"/>
<path class="sm" d="M24.14,18.49H15.83a.66.66,0,1,0,0,1.33h8.31a.66.66,0,0,0,0-1.33Z"/>
<path class="sm" d="M24.14,21.81H15.83a.66.66,0,1,0,0,1.33h8.31a.66.66,0,0,0,0-1.33Z"/>
<rect class="a" width="30" height="30"/>
</svg>