<svg xmlns="http://www.w3.org/2000/svg" viewBox="0 0 30 30">
<defs><style>.a{fill:none;}</style></defs>
<title>Dribbble</title>
<rect class="a" width="30" height="30"/>
<path class="sm" d="M15,1.88A13.11,13.11,0,1,0,28.13,15,13.11,13.11,0,0,0,15,1.88ZM24,8a11.33,11.33,0,0,1,2.42,7,16.69,16.69,0,0,0-8.32-.6c-.13-.28-.26-.56-.4-.84l-.48-.94A23.14,23.14,0,0,0,24,8Zm-1.3-1.41a21.36,21.36,0,0,1-6.4,4.32C14.61,8,12.79,5.32,11.88,4a11.38,11.38,0,0,1,10.8,2.52ZM10,4.75c.71,1,2.64,3.73,4.42,6.79a43.85,43.85,0,0,1-10.6,1.25A11.4,11.4,0,0,1,10,4.75Zm-6.39,10c2.23,0,7.72-.17,11.77-1.46.2.37.39.74.58,1.11l.27.56a22.88,22.88,0,0,0-9.8,7.55A11.34,11.34,0,0,1,3.63,15C3.63,14.89,3.63,14.8,3.64,14.7Zm4.2,9.12A21.19,21.19,0,0,1,17,16.69a54.83,54.83,0,0,1,2.39,8.81A11.39,11.39,0,0,1,7.84,23.82Zm13.32.75a55.08,55.08,0,0,0-2.32-8.43,15.65,15.65,0,0,1,7.41.77A11.39,11.39,0,0,1,21.15,24.57Z"/>
</svg>