<svg xmlns="http://www.w3.org/2000/svg" viewBox="0 0 30 30">
<defs><style>.a{fill:none;}</style></defs>
<title>GitHub</title>
<rect class="a" width="30" height="30"/>
<path class="sm" d="M17.39,20.92c.67-.14,1.35-.24,2-.44a5.15,5.15,0,0,0,3-2.21,6.85,6.85,0,0,0,.88-3,6.24,6.24,0,0,0-.26-2.7A5,5,0,0,0,22.13,11a.3.3,0,0,1-.07-.34,4.56,4.56,0,0,0-.17-3.22.24.24,0,0,0-.19-.13,3.53,3.53,0,0,0-.81.08,8.5,8.5,0,0,0-2.45,1.18.49.49,0,0,1-.44.08,11.51,11.51,0,0,0-3.91-.36c-.75.06-1.48.23-2.22.36a.51.51,0,0,1-.42-.07A8.22,8.22,0,0,0,8.71,7.34c-.62-.14-.69-.09-.87.51a4.48,4.48,0,0,0,0,2.84.31.31,0,0,1-.05.26,5.5,5.5,0,0,0-1.21,4.35A8.53,8.53,0,0,0,7,17.44a4.76,4.76,0,0,0,2.62,2.73,8.93,8.93,0,0,0,2.66.68l.18,0c-.1.13-.19.22-.27.33a2.84,2.84,0,0,0-.5,1.23.33.33,0,0,1-.25.3,3.19,3.19,0,0,1-2.31.07A2.49,2.49,0,0,1,8,21.75a3,3,0,0,0-1.58-1.41,2.65,2.65,0,0,0-.89-.11c-.28,0-.35.17-.17.39a1.47,1.47,0,0,0,.4.37A3.33,3.33,0,0,1,7,22.45a3.41,3.41,0,0,1,.18.42A2.53,2.53,0,0,0,9.4,24.54a6.34,6.34,0,0,0,2.23,0,1.3,1.3,0,0,1,0,.16c0,.72,0,1.44,0,2.17a1.09,1.09,0,0,1-.07.42.65.65,0,0,1-.89.32A12.72,12.72,0,0,1,6.26,25a13.09,13.09,0,0,1-4.44-11.3A13.15,13.15,0,0,1,8.45,3.57,12.66,12.66,0,0,1,13.14,2a13.19,13.19,0,0,1,14,8,12.38,12.38,0,0,1,.95,3.85A13,13,0,0,1,23.9,24.75a12.87,12.87,0,0,1-4.7,2.8.68.68,0,0,1-1-.7c0-1.21,0-2.42,0-3.63A3.15,3.15,0,0,0,17.39,20.92Z"/>
<path class="sm" d="M6.64,20.87a.11.11,0,0,1-.07,0L6.4,20.7a.11.11,0,0,1,.15-.17l.17.15a.11.11,0,0,1-.07.2Z"/>
<path class="sm" d="M7.23,21.47a.14.14,0,0,1-.11-.06L7,21.29l-.08-.08a.14.14,0,0,1,.19-.2l.09.09.12.15a.14.14,0,0,1,0,.19Z"/>
<path class="sm" d="M7.72,22.23a.16.16,0,0,1-.13-.06L7.4,21.9a.16.16,0,1,1,.27-.18l.17.25a.16.16,0,0,1-.13.25Z"/>
<path class="sm" d="M8.42,23a.18.18,0,0,1-.11,0L8,22.71a.18.18,0,0,1,.26-.26l.25.23a.18.18,0,0,1-.11.32Z"/>
<path class="sm" d="M9.31,23.51H9.25l-.3-.11A.21.21,0,0,1,9.11,23l.25.09a.21.21,0,0,1-.06.4Z"/>
<path class="sm" d="M10.17,23.65h0a.23.23,0,0,1,0-.46h.25a.23.23,0,1,1,0,.46Z"/>
<path class="sm" d="M11.27,23.51a.23.23,0,0,1-.06-.45l.15,0a.23.23,0,0,1,.14.43l-.18.05Z"/>
</svg>