<svg xmlns="http://www.w3.org/2000/svg" viewBox="0 0 30 30">
<defs><style>.a{fill:none;}</style></defs>
<title>Instagram</title>
<rect class="a" width="30" height="30"/>
<path class="sm" d="M15,4.25c3.51,0,3.92,0,5.3.08a7.16,7.16,0,0,1,2.44.45,4.05,4.05,0,0,1,1.51,1,4,4,0,0,1,1,1.51,7.3,7.3,0,0,1,.45,2.44c.06,1.39.08,1.8.08,5.3s0,3.92-.08,5.3a7.16,7.16,0,0,1-.45,2.44,4.34,4.34,0,0,1-2.49,2.49,7.3,7.3,0,0,1-2.44.45c-1.39.06-1.8.08-5.3.08s-3.92,0-5.3-.08a7.16,7.16,0,0,1-2.44-.45,4.05,4.05,0,0,1-1.51-1,4,4,0,0,1-1-1.51,7.3,7.3,0,0,1-.45-2.44c-.06-1.39-.08-1.8-.08-5.3s0-3.92.08-5.3a7.16,7.16,0,0,1,.45-2.44,4.05,4.05,0,0,1,1-1.51,4,4,0,0,1,1.51-1A7.3,7.3,0,0,1,9.7,4.32c1.39-.07,1.8-.08,5.3-.08m0-2.37c-3.56,0-4,0-5.41.08a9.58,9.58,0,0,0-3.18.61A6.33,6.33,0,0,0,4.08,4.08,6.33,6.33,0,0,0,2.56,6.41,9.62,9.62,0,0,0,2,9.59C1.89,11,1.87,11.44,1.87,15s0,4,.08,5.41a9.59,9.59,0,0,0,.61,3.18,6.37,6.37,0,0,0,1.52,2.32A6.51,6.51,0,0,0,6.4,27.44a9.62,9.62,0,0,0,3.18.61c1.4.06,1.84.08,5.41.08s4,0,5.41-.08a9.59,9.59,0,0,0,3.18-.61,6.72,6.72,0,0,0,3.84-3.84A9.62,9.62,0,0,0,28,20.42c.06-1.4.08-1.85.08-5.41s0-4-.08-5.41a9.59,9.59,0,0,0-.61-3.18,6.37,6.37,0,0,0-1.52-2.32A6.44,6.44,0,0,0,23.6,2.57,9.62,9.62,0,0,0,20.41,2C19,1.9,18.56,1.88,15,1.88Z"/>
<path class="sm" d="M15,8.26A6.74,6.74,0,1,0,21.74,15h0A6.75,6.75,0,0,0,15,8.26Zm0,11.12A4.38,4.38,0,1,1,19.38,15,4.38,4.38,0,0,1,15,19.38Z"/>
<circle class="sm" cx="22.01" cy="8" r="1.57"/>
</svg>