<svg xmlns="http://www.w3.org/2000/svg" viewBox="0 0 30 30">
<defs><style>.a{fill:none;}</style></defs>
<title>LinkedIn</title>
<rect class="a" width="30" height="30"/>
<path class="sm" d="M28.12,25.07H22.5v-.3q0-4.3,0-8.6a6.37,6.37,0,0,0-.35-2.29,2.49,2.49,0,0,0-2.9-1.65,3,3,0,0,0-2.54,2.24,4.24,4.24,0,0,0-.13,1.26c0,3,0,6,0,9v.29H11V8.16h5.6v2.36c.18-.24.31-.44.46-.62A5.18,5.18,0,0,1,19.6,8.05a6.94,6.94,0,0,1,5,.37,5.68,5.68,0,0,1,2.84,3.1,10.55,10.55,0,0,1,.65,4c0,3.09,0,6.18,0,9.28Z"/>
<path class="sm" d="M7.82,25.07H2.21V8.16H7.82Z"/>
<path class="sm" d="M8.19,3A2.84,2.84,0,0,1,5.64,5.79,3.49,3.49,0,0,1,3,5.24,2.9,2.9,0,0,1,4.24.08,3.94,3.94,0,0,1,6.38.23,2.82,2.82,0,0,1,8.19,3Z"/>
</svg>