<svg xmlns="http://www.w3.org/2000/svg" viewBox="0 0 30 30">
<defs><style>.a{fill:none;}</style></defs>
<title>Pinterest</title>
<path class="sm" d="M15,1.87a13.12,13.12,0,0,0-4.78,25.33,12.63,12.63,0,0,1,0-3.77c.24-1,1.53-6.52,1.53-6.52A4.78,4.78,0,0,1,11.42,15c0-1.82,1.06-3.18,2.37-3.18a1.65,1.65,0,0,1,1.66,1.85A25.93,25.93,0,0,1,14.36,18a1.91,1.91,0,0,0,1.94,2.37c2.33,0,4.12-2.46,4.12-6a5.17,5.17,0,0,0-5.48-5.33A5.68,5.68,0,0,0,9,14.74a5.12,5.12,0,0,0,1,3,.39.39,0,0,1,.09.38c-.1.41-.32,1.31-.37,1.49s-.19.29-.44.17C7.63,19,6.6,16.62,6.6,14.69c0-4.13,3-7.93,8.67-7.93,4.54,0,8.08,3.24,8.08,7.58,0,4.52-2.85,8.16-6.8,8.16a3.48,3.48,0,0,1-3-1.51l-.82,3.12a14.29,14.29,0,0,1-1.63,3.44A13.13,13.13,0,1,0,15,1.87Z"/>
<rect class="a" width="30" height="30"/>
</svg>