<svg xmlns="http://www.w3.org/2000/svg" viewBox="0 0 400 400">
<defs><style>.a{fill:none;}</style></defs>
<title>Reddit</title>
<rect class="a" width="400" height="400"/>
<path class="sm" d="M295.09,50.63c4.7-9,11.82-14.49,21.86-16,15-2.18,30.15,8.44,32.79,23,3,16.59-6.74,31.39-22.81,34.68a28.83,28.83,0,0,1-34.06-21.94c-.32-1.39-.07-3-.55-4.26A4.24,4.24,0,0,0,290,63.67c-20.62-4.73-41.27-9.33-61.92-13.94a4.8,4.8,0,0,0-1.27.23l-20.39,91.7c36.71,1.52,70.82,10,100.84,31,3.65-2.49,6.87-5.22,10.53-7.08a39.14,39.14,0,0,1,52.34,15.79c10,17.77,4,40.45-13.89,51.77-2,1.26-2.72,2.34-2.27,4.77,5.39,29.38-3,54.83-23.15,76.28-25.18,26.75-56.64,41.84-92.63,48.06a218.65,218.65,0,0,1-66.31,1.6C129,358.11,91.56,341.49,63.57,307.36c-16.2-19.76-21.9-42.76-17.73-68,.48-2.9,0-4.59-2.79-6.23-14.81-8.65-21.9-26.49-17.53-43.28,4.22-16.18,19.51-28,36.55-28.54,10.43-.31,19.63,2.64,27.26,9.83,1.83,1.72,3.13,1.83,5.17.45,19.59-13.29,41.24-21.7,64.39-26.05,9.59-1.81,19.42-2.43,29.17-3.33,3.19-.29,4.6-1.26,5.33-4.65,6.7-31.09,13.65-62.14,20.53-93.19.34-1.55.63-3.11,1.11-4.62,1.39-4.41,3.53-5.73,8.14-4.73Q256.11,42.06,289,49.29Zm-31.5,217.25a29,29,0,1,0,.21-58.06,29.29,29.29,0,0,0-29,29.24A28.82,28.82,0,0,0,263.58,267.88Zm-128.1,0a28.87,28.87,0,0,0,28.92-28.72c.06-16-13.11-29.32-29-29.34a29,29,0,1,0,0,58.06Zm63.83,61.23c9.83-1.17,19.74-1.93,29.48-3.6,13.12-2.24,25.07-7.38,34.92-16.67,3.64-3.43,4.09-6.47,1.47-9.78-2.78-3.51-6.6-3.54-10.65-1-6.12,3.92-12.24,8.13-18.92,10.84-10.92,4.42-22.69,5.06-34.39,5-20.62-.18-41-1.27-57.49-16.29-2.9-2.64-7.07-1.79-9.59,1.23s-2.65,6.46.53,9.13c4.27,3.59,8.66,7.24,13.54,9.86C164.12,326.36,181.49,328.39,199.32,329.1Z"/>
</svg>