<svg xmlns="http://www.w3.org/2000/svg" viewBox="0 0 400 400">
<defs><style>.a{fill:none;}</style></defs>
<title>Reddit</title>
<rect class="a" width="400" height="400"/>
<path class="sm" d="M308.87,18.52C314.23,8.26,322.34,2,333.79.32c17.07-2.49,34.39,9.63,37.39,26.25,3.42,18.91-7.69,35.8-26,39.55a32.88,32.88,0,0,1-38.84-25c-.36-1.59-.08-3.37-.63-4.86-.43-1.15-1.55-2.62-2.61-2.87C279.57,28,256,22.74,232.48,17.48a5.48,5.48,0,0,0-1.45.26L207.78,122.33c41.87,1.73,80.76,11.41,115,35.3,4.16-2.83,7.84-5.95,12-8.08a44.64,44.64,0,0,1,59.69,18c11.44,20.27,4.56,46.13-15.84,59-2.28,1.44-3.1,2.67-2.59,5.44,6.15,33.5-3.37,62.53-26.4,87-28.72,30.5-64.59,47.72-105.63,54.8a249.35,249.35,0,0,1-75.62,1.82c-48.91-6.49-91.65-25.44-123.56-64.36-18.48-22.54-25-48.76-20.22-77.6.54-3.3,0-5.24-3.18-7.11-16.89-9.86-25-30.21-20-49.36,4.81-18.45,22.25-32,41.69-32.55,11.89-.35,22.39,3,31.09,11.21,2.08,2,3.57,2.09,5.9.51,22.34-15.15,47-24.74,73.43-29.71,10.94-2.06,22.15-2.77,33.26-3.8,3.63-.34,5.24-1.43,6.08-5.3,7.64-35.46,15.57-70.86,23.41-106.28.39-1.76.72-3.55,1.26-5.27,1.58-5,4-6.53,9.29-5.4Q264.41,8.74,301.93,17ZM272.94,266.27a33.11,33.11,0,1,0,.24-66.21,33.41,33.41,0,0,0-33.11,33.35A32.87,32.87,0,0,0,272.94,266.27Zm-146.08,0a32.92,32.92,0,0,0,33-32.76c.06-18.22-15-33.43-33-33.46a33.11,33.11,0,1,0,0,66.21Zm72.8,69.82c11.21-1.33,22.51-2.2,33.62-4.1,15-2.56,28.59-8.41,39.83-19,4.15-3.91,4.66-7.38,1.67-11.15-3.17-4-7.53-4-12.15-1.09-7,4.47-14,9.28-21.57,12.36-12.46,5-25.88,5.77-39.22,5.65-23.51-.21-46.76-1.44-65.56-18.58-3.31-3-8.06-2-10.94,1.4s-3,7.37.61,10.42c4.87,4.09,9.88,8.26,15.44,11.25C159.5,333,179.31,335.27,199.65,336.09Z"/>
</svg>