<svg xmlns="http://www.w3.org/2000/svg" viewBox="0 0 30 30">
<defs><style>.a{fill:none;}</style></defs>
<title>Twitter</title>
<path class="sm" d="M4.58,17.48l2.17-.15a6.17,6.17,0,0,1-4.22-5.55l2.19.53C2.61,10.14,2,7.76,3.27,4.8A16.48,16.48,0,0,0,15,10.66c0-.39,0-.7,0-1A5.38,5.38,0,0,1,18.05,4.3,5.46,5.46,0,0,1,24.22,5a1.58,1.58,0,0,0,1.19.25,27.36,27.36,0,0,1,2.79-.73l-2,2.66L28.7,6.6l.11.14c-.63.65-1.23,1.34-1.91,1.93a1.78,1.78,0,0,0-.73,1.47,16,16,0,0,1-12,15.51A15.86,15.86,0,0,1,2.88,24.43l-.61-.33a4.17,4.17,0,0,1-.4-.36,11.94,11.94,0,0,0,7.83-2.43A6,6,0,0,1,4.58,17.48Z"/>
<rect class="a" width="30" height="30"/>
</svg>