<svg xmlns="http://www.w3.org/2000/svg" viewBox="0 0 30 30">
<defs><style>.a{fill:none;}</style></defs>
<title>WhatsApp</title>
<path class="sm" d="M1.87,28l1-3c.42-1.24.84-2.48,1.24-3.72a.45.45,0,0,0,0-.33,12.5,12.5,0,0,1-1.57-4.32A12.71,12.71,0,0,1,3.4,9.42a12.87,12.87,0,0,1,13-7.77A12.59,12.59,0,0,1,25,6.07a12.32,12.32,0,0,1,3,6.59A12.61,12.61,0,0,1,23.93,24a12.34,12.34,0,0,1-7.49,3.33,12.6,12.6,0,0,1-7.21-1.43.57.57,0,0,0-.49,0L2,28Zm3.34-3.31.2-.05c1.2-.38,2.41-.76,3.6-1.15a.67.67,0,0,1,.63.07,10.23,10.23,0,0,0,6.92,1.51A10.4,10.4,0,0,0,24,20.62a10.37,10.37,0,0,0,1.84-7.68,10.39,10.39,0,0,0-3.69-6.65A10.42,10.42,0,0,0,13.7,3.85,10.33,10.33,0,0,0,7.17,7.42a10.57,10.57,0,0,0-2.46,9.17,10,10,0,0,0,1.73,4,.36.36,0,0,1,.05.37c-.17.46-.32.93-.48,1.39Z"/>
<path class="sm" d="M11.06,8.18c.22,0,.4,0,.58,0a.57.57,0,0,1,.58.41L13,10.77c.07.18.12.38.19.56a.67.67,0,0,1-.09.69c-.15.21-.33.42-.49.62l-.21.23c-.39.46-.39.46-.11,1a8.55,8.55,0,0,0,3.52,3.47l.78.41a.43.43,0,0,0,.56-.08l.82-.9c.75-.84.63-.69,1.43-.32s1.47.78,2.2,1.17a.53.53,0,0,1,.31.57,2.61,2.61,0,0,1-1.83,2.47,3.66,3.66,0,0,1-2.63.07,13.75,13.75,0,0,1-4.17-2.15,12.65,12.65,0,0,1-1.95-2A16.12,16.12,0,0,1,9.3,13.45,4.34,4.34,0,0,1,9,10.26a3.74,3.74,0,0,1,1.21-1.8A1.12,1.12,0,0,1,11.06,8.18Z"/>
<rect class="a" width="30" height="30"/>
</svg>