<svg xmlns="http://www.w3.org/2000/svg" viewBox="0 0 30 30">
<defs><style>.a{fill:none;}</style></defs>
<title>YouTube</title>
<path class="sm" class="sm" d="M30,13.18c0-.24,0-.48,0-.73-.05-1.2-.13-2.39-.21-3.59A4.39,4.39,0,0,0,26,5l-.45,0L25,4.87l-.62-.05-.41,0-1.58-.12h-.22Q18.59,4.42,15,4.42t-7.12.23H7.66l-1.58.12-.41,0L5,4.87l-.62.06L4,5A4.39,4.39,0,0,0,.28,8.86C.2,10.06.12,11.25.06,12.45c0,.24,0,.48,0,.73C0,13.78,0,14.4,0,15q0,.61,0,1.23c0,.19,0,.38,0,.58v0c0,.24,0,.48,0,.73s0,.55,0,.83,0,.55,0,.83c0,.55.07,1.1.1,1.66,0,0,0,.1,0,.15s0,.08,0,.12h0A4.39,4.39,0,0,0,4,25H4l.37,0h0l.62.06.62.05.41,0,.7.05.63,0,.25,0H8l.54,0,1,.05.67,0h.36l.68,0,.58,0,.58,0,1,0h3.22l1,0,.58,0,.58,0,.68,0h.36l.67,0,1-.05.54,0h.34l.25,0,.63,0,.7-.05.41,0,.62-.05.62-.06h0L26,25H26a4.39,4.39,0,0,0,3.69-3.89h0s0-.08,0-.12,0-.1,0-.15c0-.55.07-1.1.1-1.66,0-.28,0-.55,0-.83s0-.55,0-.83,0-.48,0-.73v0c0-.19,0-.38,0-.58q0-.61,0-1.23C30,14.4,30,13.78,30,13.18ZM12.19,19.56V10.78l7.3,4.39Z"/>
<rect class="a" width="30" height="30"/>
</svg>